<?xml version="1.0" encoding="UTF-8" standalone="no"?>
<!-- Created with Inkscape (http://www.inkscape.org/) -->

<svg
   xmlns:dc="http://purl.org/dc/elements/1.1/"
   xmlns:cc="http://creativecommons.org/ns#"
   xmlns:rdf="http://www.w3.org/1999/02/22-rdf-syntax-ns#"
   xmlns:svg="http://www.w3.org/2000/svg"
   xmlns="http://www.w3.org/2000/svg"
   xmlns:sodipodi="http://sodipodi.sourceforge.net/DTD/sodipodi-0.dtd"
   xmlns:inkscape="http://www.inkscape.org/namespaces/inkscape"
   version="1.1"
   id="svg815"
   width="600"
   height="400"
   viewBox="0 0 600 400"
   sodipodi:docname="LoRaware_Xolo_Logo2.svg"
   inkscape:version="0.92.3 (2405546, 2018-03-11)"
   inkscape:export-filename="C:\Users\drodr\Documents\EEC695\LoRaware-Logo2.png"
   inkscape:export-xdpi="384"
   inkscape:export-ydpi="384">
  <metadata
     id="metadata821">
    <rdf:RDF>
      <cc:Work
         rdf:about="">
        <dc:format>image/svg+xml</dc:format>
        <dc:type
           rdf:resource="http://purl.org/dc/dcmitype/StillImage" />
        <dc:title />
      </cc:Work>
    </rdf:RDF>
  </metadata>
  <defs
     id="defs819" />
  <sodipodi:namedview
     pagecolor="#ffffff"
     bordercolor="#666666"
     borderopacity="1"
     objecttolerance="10"
     gridtolerance="10"
     guidetolerance="10"
     inkscape:pageopacity="0"
     inkscape:pageshadow="2"
     inkscape:window-width="1920"
     inkscape:window-height="1051"
     id="namedview817"
     showgrid="false"
     inkscape:zoom="1.4548722"
     inkscape:cx="237.47325"
     inkscape:cy="221.681"
     inkscape:window-x="-9"
     inkscape:window-y="-9"
     inkscape:window-maximized="1"
     inkscape:current-layer="svg815" />
  <path
     style="fill:#010101;fill-opacity:1;stroke:none;stroke-width:0.06319053;stroke-miterlimit:4;stroke-dasharray:none;stroke-opacity:1"
     d="m 463.84533,132.75859 c 0.12208,0.006 0.23466,0.0212 0.33666,0.0488 0.21219,0.057 0.38574,0.15892 0.52384,0.30855 -0.65146,0.0666 -1.29298,0.13939 -1.91093,0.22558 -0.61081,0.0852 -1.21878,0.18185 -1.82524,0.28318 1.18556,-0.58258 2.18694,-0.89749 2.87567,-0.86599 z m 1.18962,2.74607 c -0.0389,0.34868 -0.0928,0.72699 -0.17073,1.15672 -2.06969,0.16852 -3.69151,0.41762 -5.59912,0.8269 -1.97227,0.42316 -3.90652,0.93001 -5.80138,1.51121 0.20556,-0.18066 0.40543,-0.35414 0.61094,-0.5355 0.4843,-0.42742 0.97011,-0.83491 1.45291,-1.22529 3.10852,-0.80713 6.28504,-1.38614 9.50738,-1.73404 z m -0.67538,3.62166 c -0.0806,0.40955 -0.15379,0.81129 -0.22215,1.20129 -6.62196,0.7942 -13.09252,2.74709 -19.22937,5.81715 -8.10445,4.05438 -14.97277,9.5304 -20.42928,16.19051 0.005,-0.37578 -0.0788,-0.9059 -0.20363,-1.47485 2.83105,-3.21443 7.65579,-7.77733 10.48718,-9.86324 3.02936,-2.23175 6.18651,-4.1655 9.46213,-5.80001 l 1.52422,0.30855 0.90988,-0.70212 c 0.37323,-0.28817 1.07796,-0.87498 1.89379,-1.5633 5.02623,-2.04431 10.30565,-3.41896 15.80723,-4.11398 z m -0.58076,3.58807 c -0.0657,0.4326 -0.13771,0.83246 -0.23038,1.18962 -2.40764,0.41085 -5.24849,0.99587 -7.07122,1.50778 -14.46718,4.06305 -26.80491,13.7022 -34.36876,26.38356 -0.19658,-0.4909 -0.31682,-0.98464 -0.36409,-1.48309 5.74976,-9.14588 14.3971,-17.13273 23.86718,-21.8774 5.5935,-2.80244 12.28522,-4.88761 18.16727,-5.72047 z m -24.22372,1.89723 c 0.24485,-0.002 0.48537,0.005 0.72474,0.0137 -6.39561,3.5828 -12.07978,8.16221 -16.86658,13.53495 -0.21419,-0.4748 -0.42688,-0.82712 -0.60201,-0.92084 0.80926,-0.89941 1.64294,-1.7835 2.50679,-2.64734 3.8374,-3.83741 8.05866,-7.14416 12.57159,-9.88929 0.58763,-0.0564 1.13679,-0.0877 1.66547,-0.0912 z m -7.48194,1.08334 c -4.43866,3.19962 -8.49868,6.9264 -12.08203,11.11182 -0.48711,-0.0655 -0.88892,-0.14515 -1.25064,-0.25643 1.29099,-1.53182 2.65064,-3.01815 4.08379,-4.45131 2.22345,-2.22344 4.57468,-4.27031 7.02939,-6.14765 l 0.26878,0.13646 z m 30.55993,0.66441 c -0.009,0.0218 -0.0137,0.0341 -0.0233,0.0562 -0.17411,0.40087 -0.34265,0.83036 -0.49163,1.23488 -1.30084,0.11031 -7.03023,1.75919 -9.87352,2.88183 -11.84135,4.67546 -21.77895,13.39754 -27.86113,24.35264 -0.0929,-0.0865 -0.18546,-0.16397 -0.27908,-0.25644 -0.19458,-0.19221 -0.37378,-0.3848 -0.5444,-0.57733 2.40883,-4.27443 5.38043,-8.09087 9.25299,-11.96342 7.95808,-7.95807 16.65227,-12.72612 27.77682,-15.23196 0.78053,-0.17582 1.45114,-0.33824 2.04327,-0.49642 z m -0.73983,1.93835 c -0.0914,0.28002 -0.1674,0.53069 -0.19679,0.68499 -0.21037,1.10419 -0.33264,1.40582 -0.85296,2.0995 -0.14907,0.19873 -0.3446,0.40305 -0.56567,0.60749 -0.45201,0.20455 -0.86263,0.52657 -1.40355,1.04152 -0.61269,0.37667 -1.29945,0.72617 -2.01722,1.01066 -0.37951,0.15043 -0.69724,0.28562 -0.99009,0.41551 0.001,-0.002 0.002,-0.002 0.003,-0.003 l 1.43576,-1.71416 -2.58288,0.92016 c -3.89464,1.38749 -9.66642,4.49122 -12.9926,6.98758 -3.65235,2.74122 -8.05184,7.15881 -10.84083,10.88553 -1.22207,1.63297 -2.385,3.50179 -3.45847,5.50449 -0.38076,-0.12608 -0.73609,-0.27109 -1.07238,-0.43951 2.3509,-4.21849 5.32909,-8.14305 8.92594,-11.73989 5.95747,-5.95748 13.10471,-10.39803 20.68571,-12.85204 2.51537,-0.81423 3.75438,-1.43804 4.95528,-2.49511 0.38404,-0.33806 0.71067,-0.65058 0.96815,-0.91331 z m -8.26428,7.81998 c -0.0146,0.0398 -0.0318,0.0742 -0.046,0.11587 -0.17423,0.51477 -0.35517,1.55154 -0.40248,2.30451 -0.012,0.19184 -0.0154,0.34042 -0.0198,0.49642 -0.35424,0.43344 -0.68304,0.90226 -0.97912,1.40355 -0.27296,0.46213 -0.28808,0.51449 1.09226,-0.1296 0.0464,0.17467 0.107,0.35515 0.18513,0.56156 0.0482,0.12736 0.11686,0.28193 0.19679,0.45117 -2.23239,0.87149 -3.68599,2.05355 -4.81198,3.92129 -0.65434,1.0854 -1.12826,2.03426 -1.05318,2.1091 0.3549,0.3537 4.43794,-2.99343 5.64231,-4.62547 0.2438,-0.33037 0.39446,-0.54034 0.55264,-0.7604 0.1841,0.34781 0.39388,0.72668 0.6363,1.14437 -0.11236,0.19314 -0.18597,0.34093 -0.15907,0.36408 0.0622,0.0536 0.19815,0.049 0.37985,0.006 0.18381,0.31089 0.36409,0.61777 0.56567,0.94553 -0.18729,0.0901 -0.38075,0.18411 -0.61366,0.30169 -2.02308,1.02124 -2.78969,1.84147 -4.19214,4.48697 -0.23032,0.43443 -0.37319,0.78592 -0.31814,0.78096 0.63338,-0.0568 4.1943,-2.7667 4.95458,-3.77045 0.28195,-0.37221 0.5073,-0.6775 0.70349,-0.94964 0.22015,0.34765 0.4362,0.6834 0.65961,1.02438 -0.0459,0.0973 -0.0415,0.14635 0.083,0.12479 0.2192,0.33313 0.4339,0.65856 0.64657,0.97021 -0.13811,0.056 -0.27195,0.10809 -0.41756,0.17072 -1.4801,0.63674 -1.97567,1.09796 -2.87979,2.6782 -0.60073,1.04995 -1.03579,1.9554 -0.96678,2.01242 0.069,0.057 0.97283,-0.41187 2.00899,-1.04221 0.9387,-0.57105 2.17428,-1.78185 2.97851,-2.78173 0.56886,0.78986 1.05019,1.39665 1.33293,1.6449 0.0819,0.0719 0.16596,0.13262 0.24821,0.19885 -0.16059,0.068 -0.32094,0.13485 -0.49162,0.21393 -1.3989,0.64811 -1.93579,1.1638 -2.72756,2.61854 -0.54225,0.9963 -0.93659,1.80781 -0.87627,1.80328 0.0603,-0.005 0.89378,-0.43895 1.85197,-0.96541 1.04425,-0.57375 2.4979,-2.00376 3.23563,-3.02514 0.28285,0.14093 0.60527,0.27238 0.98735,0.40043 -0.52384,0.8251 -0.27712,0.80944 1.16562,0.33254 0.72481,0.18396 1.63517,0.3791 2.76596,0.59859 -0.0203,0.0118 -0.0484,0.0232 -0.0672,0.035 -0.38617,0.24322 -0.98755,0.93514 -1.33635,1.53725 -0.69622,1.20185 -0.55362,1.27281 1.41108,0.70486 0.63029,-0.18219 1.66857,-1.06185 2.31959,-1.84168 0.0828,0.015 0.145,0.0273 0.22971,0.0426 0.29392,0.053 0.67743,0.12673 0.99968,0.18581 l -0.73023,0.94965 h 1.27945 c 0.66875,0 1.16464,-0.14067 1.73061,-0.52659 1.6441,0.30971 3.25213,0.61781 4.33543,0.83651 2.78828,0.56289 4.42663,0.84036 5.84938,0.93456 0.12324,0.15572 0.44164,0.28533 0.9901,0.47653 0.60806,0.21197 1.13363,0.38534 1.16768,0.38534 0.0341,0 0.42046,-0.38128 0.85844,-0.84748 0.0261,-0.0278 0.0346,-0.0391 0.059,-0.0651 0.007,-4.9e-4 0.013,-4.9e-4 0.0199,-0.002 1.07828,-0.0899 2.44608,-0.23132 3.92815,-0.39562 0.45504,0.32947 1.01499,0.5924 1.28698,0.5924 0.28963,0 0.90896,-0.29447 1.37682,-0.65412 l 0.38259,-0.29414 c 1.14373,-0.1398 2.31985,-0.2891 3.53528,-0.45048 -0.0287,0.0145 -0.0561,0.0242 -0.085,0.0397 -0.70815,0.37898 -0.70761,0.38569 0.0843,1.2287 0.88716,0.94432 0.86111,0.93866 2.06522,0.45802 1.22094,-0.48738 1.25575,-0.57402 0.54167,-1.3631 -0.25733,-0.28431 -0.54229,-0.47726 -0.85023,-0.58417 0.50729,-0.061 1.01639,-0.11673 1.52697,-0.16731 0.0686,0.08 0.14267,0.16289 0.23312,0.25918 0.78953,0.8404 1.53262,0.97241 3.06011,0.54236 l 0.81251,-0.22901 -0.85845,-0.8221 c 0.49598,-0.0273 0.99323,-0.0503 1.49201,-0.0679 0.467,0.52558 0.92199,0.71515 1.64832,0.71515 1.03392,0 1.49125,-0.26343 1.36035,-0.76588 0.62609,0.002 1.25415,0.0132 1.8842,0.0302 0.6932,0.54815 1.23789,0.73572 2.01584,0.73572 h 1.27876 l -0.46968,-0.61092 c 0.53702,0.0331 1.07581,0.0722 1.61542,0.11587 0.60413,0.54794 1.31012,1.0329 1.84237,1.18071 0.72038,0.20007 1.43775,0.36509 1.59348,0.36615 0.2444,0.002 -0.0385,-0.6098 -0.46762,-1.2534 0.46257,0.0535 0.92557,0.1095 1.38983,0.17073 0.0924,0.14504 0.16031,0.26162 0.26261,0.4162 0.86522,1.30747 4.32448,3.58631 4.32448,2.84892 0,-0.15853 -0.44738,-0.99013 -0.99422,-1.84853 -0.25719,-0.40373 -0.50064,-0.72555 -0.75698,-0.99764 1.29882,0.21327 2.60275,0.45377 3.91308,0.72612 0.8317,0.17285 1.63475,0.35832 2.41696,0.55538 1.47779,1.92675 4.19761,4.73301 4.19761,4.16813 0,-0.33097 -0.79439,-2.0737 -1.49337,-3.40842 2.2014,0.68941 4.22062,1.5076 6.13667,2.4814 0.73536,1.66426 1.6045,3.44301 2.18658,4.35052 0.72826,1.13541 1.69887,2.87315 2.15639,3.86165 0.58603,1.26607 0.77189,1.48585 0.62876,0.74394 -0.43958,-2.27799 -1.38464,-5.66454 -2.00214,-7.27075 0.19214,0.12081 0.38446,0.24076 0.57528,0.36546 0.86828,0.56739 1.65628,1.1318 2.38266,1.70043 6.82375,11.96637 6.67431,27.10855 -0.45664,38.93184 -0.78935,1.30878 -2.03469,3.85271 -2.76733,5.65329 -0.73262,1.80058 -1.29426,3.27335 -1.24859,3.27335 0.0457,0 0.57088,-0.51343 1.16768,-1.14095 3.8565,-4.05493 7.84079,-11.33368 9.46419,-17.28964 0.88908,-3.2618 0.95717,-3.9957 0.95717,-10.35622 0,-6.36052 -0.0681,-7.09443 -0.95717,-10.35622 -0.14312,-0.52502 -0.31529,-1.07039 -0.49985,-1.62365 0.38165,0.91862 0.69354,1.89013 0.93867,2.93806 0.51076,2.18364 0.82214,4.58359 1.29178,9.96128 0.13308,1.52385 0.25142,2.74181 0.36889,3.80541 -0.42726,3.623 -1.26724,7.06537 -2.52392,10.33293 -0.0325,-0.009 -0.0676,-0.0198 -0.0891,-0.0198 -0.0753,0 -0.0917,0.16436 -0.0692,0.41962 -2.03267,5.12316 -5.09577,9.81606 -9.20637,14.10336 -1.23332,1.28634 -2.59698,2.95986 -3.44957,4.199 -0.36611,-0.60119 -0.74592,-1.15094 -1.12242,-1.60993 -0.009,-0.011 -0.0258,-0.0268 -0.0357,-0.0384 0.89385,-0.81193 1.51354,-1.7208 2.31205,-3.32476 0.7209,-1.44811 1.31295,-2.78621 1.31647,-2.97372 0.0112,-0.66785 -3.28711,2.89864 -4.89493,5.15069 -0.40452,-0.33269 -0.87516,-0.70559 -1.43922,-1.13614 0.84504,-0.72488 1.35959,-1.47198 2.02134,-2.80915 0.61737,-1.24751 1.13076,-2.50089 1.14094,-2.78447 0.0283,-0.79059 -2.93556,2.30486 -4.52948,4.57198 -0.1843,-0.13582 -0.33703,-0.25275 -0.53208,-0.39494 -0.3961,-0.28874 -0.70534,-0.51591 -1.0662,-0.77959 0.16922,-0.13378 0.33505,-0.26817 0.49093,-0.40249 0.70419,-0.60674 2.84687,-4.60722 2.84687,-5.31524 0,-0.63933 -3.36844,2.88562 -4.65015,4.75849 -0.6245,-0.45855 -1.16048,-0.85659 -1.67165,-1.23694 1.4466,-0.96629 2.15281,-2.08675 2.97715,-4.69061 0.45331,-1.43193 -3.07162,1.81005 -4.17431,3.79034 -0.70367,-0.5339 -1.31229,-1.00621 -1.79575,-1.40012 0.81559,-0.54979 1.61864,-1.12934 1.7025,-1.26505 0.10732,-0.17364 0.52083,-1.142 0.91878,-2.1516 l 0.72338,-1.83551 -1.88694,1.4248 c -1.298,0.98 -1.98675,1.78504 -2.50678,2.93531 -0.68032,-0.61843 -1.11714,-1.12124 -1.55577,-1.69495 1.15038,-0.578 1.52118,-1.02489 2.05562,-2.44987 0.36577,-0.97523 0.61645,-1.82445 0.55744,-1.88694 -0.32322,-0.34216 -2.64258,1.7641 -3.5099,3.0896 -0.38138,-0.56823 -0.73015,-1.14582 -1.05659,-1.72102 0.45362,-0.33359 0.75576,-0.77436 1.03191,-1.46457 0.81459,-2.03582 0.70311,-2.20126 -0.87971,-1.31166 -0.43044,0.2419 -0.81285,0.53394 -1.13271,0.85501 -0.35047,-0.7768 -0.6327,-1.52083 -0.81456,-2.18863 0.11908,-0.3097 0.24093,-0.66969 0.38053,-1.11763 l 0.2537,-0.81251 -0.92083,0.46968 c -0.0922,-0.50906 -0.19959,-0.82802 -0.37095,-1.05661 0.75627,-0.46141 1.6285,-1.09119 1.71415,-1.31441 0.0888,-0.23145 0.27128,-1.19126 0.40592,-2.1331 l 0.24477,-1.71276 -1.41246,1.35623 c -0.90109,0.86491 -1.5445,1.87728 -1.77792,2.79681 -0.0439,0.17286 -0.0667,0.29699 -0.10285,0.45391 -0.28044,-0.0678 -0.64048,-0.0795 -1.11214,-0.0371 0.0971,-0.34433 0.12918,-0.63122 0.0274,-0.73297 -0.0845,-0.0845 -0.66473,0.0244 -1.28905,0.24205 -0.49853,0.17377 -0.9397,0.5218 -1.25956,0.95237 -0.34668,0.0811 -0.71836,0.17152 -1.12791,0.27427 -0.0766,0.0191 -0.1556,0.0372 -0.23245,0.0562 0.15699,-0.51762 -0.0522,-0.54156 -1.14504,-0.77549 -1.00551,-0.21521 -1.13368,-0.13925 -1.49201,0.88862 -0.0663,0.19024 -0.11513,0.34408 -0.17004,0.51082 -0.42494,0.0871 -0.83047,0.17307 -1.3103,0.26466 0.2742,-0.56523 0.75287,-1.9694 0.65139,-2.02339 -0.0492,-0.0261 -0.52846,-0.23573 -1.06484,-0.46624 -0.89804,-0.38591 -1.00228,-0.34849 -1.31647,0.4779 -0.48345,1.2715 -0.44673,1.39289 0.55333,1.84854 0.22793,0.10386 0.44103,0.19457 0.61914,0.26673 -1.0042,0.18734 -2.19104,0.39588 -3.53526,0.62395 0.18841,-0.4916 0.29163,-0.89776 0.22627,-0.93661 -0.0743,-0.0441 -0.47905,-0.36953 -0.89959,-0.72269 -0.75422,-0.63342 -0.77299,-0.62707 -1.35007,0.48887 -0.48278,0.93361 -0.50259,1.18715 -0.11314,1.44812 0.036,0.0241 0.0616,0.0402 0.096,0.0631 -0.43569,0.072 -0.76622,0.12972 -1.24037,0.20707 -0.41451,0.0677 -0.64254,0.10649 -1.01341,0.16731 0.16476,-0.39634 0.0182,-0.65122 -0.5259,-1.33362 l -0.79057,-0.99078 -0.57184,0.81663 c -0.61582,0.87923 -0.69786,1.31926 -0.24409,1.8602 -1.04383,0.17506 -1.91368,0.32789 -2.635,0.46076 0.0152,-0.0222 0.0319,-0.0412 0.0466,-0.0637 0.52311,-0.79834 0.51675,-0.92464 -0.0802,-1.74433 -0.35398,-0.48599 -0.72215,-0.88312 -0.81869,-0.88312 -0.0965,0 -0.46539,0.39713 -0.81936,0.88312 -0.59701,0.81969 -0.60261,0.94599 -0.0795,1.74433 0.0815,0.12437 0.16969,0.2413 0.2585,0.34832 -0.40716,0.0839 -0.809,0.17242 -1.20334,0.26261 -0.43733,-0.3709 -0.59966,-0.32164 -1.17934,0.28317 -0.23742,0.0579 -0.43454,0.10189 -0.69731,0.1673 -0.63323,0.15763 -1.38952,0.3704 -2.18658,0.60956 0.2168,-0.25564 0.10509,-0.48844 -0.29415,-1.16425 l -0.59584,-1.00793 -0.98461,0.70144 c -0.9442,0.67234 -0.96171,0.7364 -0.42305,1.5585 0.1459,0.22265 0.2636,0.38929 0.37232,0.51836 -0.38848,0.127 -0.76398,0.25213 -1.13203,0.37849 -0.0758,-0.15013 -0.17335,-0.31066 -0.31266,-0.49437 -0.34576,-0.45593 -0.73256,-0.56641 -1.39669,-0.39973 -0.50507,0.12676 -0.98659,0.34107 -1.07032,0.47653 -0.0837,0.13546 0.11534,0.64718 0.44225,1.13683 0.0282,0.0421 0.0524,0.0744 0.0788,0.11245 -0.28805,0.11764 -0.53868,0.22554 -0.71172,0.31335 -0.13556,0.0687 -0.25921,0.13643 -0.37368,0.20433 -0.0509,-0.1174 -0.10248,-0.23485 -0.18102,-0.38672 -0.48277,-0.93358 -0.66532,-1.02252 -1.66204,-0.80908 -1.47192,0.31518 -1.48675,0.34015 -0.8084,1.37544 0.37608,0.57394 0.94708,0.8633 1.60788,0.85776 -0.18982,0.33643 -0.35522,0.76102 -0.54099,1.33772 -0.0987,0.30648 -0.22769,0.64313 -0.36203,0.96815 -10e-4,-0.002 -0.002,-0.003 -0.003,-0.005 -0.57721,-0.88096 -1.66389,-1.10861 -2.56506,-0.53825 -0.42464,0.26877 -0.41023,0.45057 0.096,1.22322 0.42592,0.65002 0.84676,0.87869 1.67164,0.90233 -0.27612,0.50805 -0.57825,1.18718 -0.9277,2.09675 -0.45012,-0.43393 -1.04052,-0.643 -2.0083,-0.7508 -1.5171,-0.16898 -1.58627,-0.0233 -0.58899,1.24448 0.5603,0.71228 1.02483,0.91922 2.08099,0.92427 -0.25461,0.72488 -0.5465,1.61032 -0.85228,2.55546 l -0.28386,-0.26741 c -1.00469,-0.94544 -1.60991,-1.23419 -2.58974,-1.23419 h -1.27945 l 0.87765,1.14094 c 0.75038,0.97599 1.12446,1.15461 2.58975,1.23419 l 0.39287,0.0212 c -0.16894,0.5322 -0.31954,1.02418 -0.47379,1.52354 l -0.18855,0.0247 0.13644,0.14261 c -0.14662,0.47628 -0.28649,0.94128 -0.42099,1.39327 l -0.53825,-0.70554 c -0.72301,-0.94792 -1.21381,-1.2252 -2.38747,-1.34801 -0.81256,-0.0851 -1.53254,-0.11112 -1.60034,-0.0583 -0.0678,0.0529 0.3066,0.65954 0.83171,1.34801 0.84138,1.10308 1.13973,1.25133 2.51089,1.25133 h 1.03923 c -0.12053,0.41077 -0.24151,0.82449 -0.35311,1.22048 -0.4646,-0.0341 -0.80906,-0.0416 -0.84405,-0.008 -0.0431,0.0419 0.22069,0.39722 0.61435,0.84542 -0.11924,0.43705 -0.23679,0.87576 -0.34695,1.30344 l -1.03055,-1.06209 c -0.79511,-0.82035 -1.69417,-1.3224 -2.78515,-1.55508 -0.88603,-0.18896 -1.67505,-0.27976 -1.75324,-0.20158 -0.0782,0.0782 0.49415,0.77802 1.27122,1.55508 1.21305,1.21305 1.62683,1.41246 2.92709,1.41246 h 1.33292 c -0.0932,0.36454 -0.18657,0.72934 -0.27426,1.09157 -0.21384,-0.0166 -0.43443,-0.0259 -0.67058,-0.0233 l -1.29316,0.0144 1.37475,1.21429 c 0.0932,0.0823 0.17451,0.14977 0.25918,0.22148 -0.15258,0.68038 -0.30049,1.37547 -0.44225,2.08303 -0.23748,-0.018 -0.49726,-0.0263 -0.81183,-0.024 l -1.78408,0.013 1.40423,1.21018 c 0.32153,0.27712 0.58819,0.48882 0.83719,0.65549 -0.10647,0.58203 -0.21356,1.18659 -0.31951,1.81015 -0.48065,-0.15706 -1.01622,-0.2479 -1.74638,-0.33117 l -1.93083,-0.2201 1.57977,1.39806 c 0.77278,0.68392 1.22683,1.03044 1.75324,1.21088 -0.0986,0.60692 -0.19035,1.15398 -0.28182,1.70113 -0.71667,-0.36847 -1.46807,-0.59654 -2.40255,-0.74463 -1.12921,-0.17898 -2.09139,-0.28966 -2.13858,-0.24616 -0.0472,0.0435 0.72385,0.73784 1.71416,1.54342 1.14924,0.93487 1.67222,1.27539 2.49238,1.39738 -0.11293,0.64254 -0.22664,1.29291 -0.33049,1.841 -1.09674,-0.74435 -1.99063,-1.06201 -3.43311,-1.23762 l -2.09949,-0.25575 1.69838,1.40355 c 0.93392,0.77176 2.17483,1.49815 2.75773,1.61474 0.22993,0.046 0.48559,0.0828 0.74531,0.11382 -0.16877,0.79222 -0.3317,1.49401 -0.48956,2.05766 -1.23997,-0.86974 -2.36098,-1.28283 -4.7249,-1.74432 -2.37773,-0.46418 -5.3238,-1.3128 -8.14291,-2.30588 0.1133,-0.34614 0.22126,-0.69598 0.32432,-1.04838 0.99626,0.35697 2.00341,0.68848 3.02308,0.98804 1.86521,0.54798 3.9442,1.09463 4.61999,1.21431 l 1.22871,0.21735 -1.64423,-1.51873 c -1.30618,-1.20684 -2.35188,-1.75254 -5.09034,-2.65626 -0.52476,-0.17317 -1.04484,-0.35602 -1.56194,-0.54509 0.0439,-0.22568 0.0828,-0.44274 0.1097,-0.6363 0.0178,-0.12761 0.0336,-0.31137 0.0487,-0.52042 0.0609,0.0226 0.13278,0.0512 0.18924,0.0713 l 2.58289,0.92016 -1.43578,-1.71416 c -0.39897,-0.47651 -0.79646,-0.87937 -1.25201,-1.25407 0.0162,-0.62825 0.0273,-1.33717 0.035,-2.08236 0.59017,0.48249 1.26078,0.85156 2.09469,1.16357 2.15736,0.80717 2.23801,0.82259 2.23801,0.43746 0,-0.61022 -2.47081,-2.69626 -4.32242,-3.74029 -3e-4,-1.15001 -0.0103,-2.29933 -0.0288,-3.38237 0.22256,0.34685 0.59875,0.86839 1.04563,1.43235 0.87102,1.09923 1.75092,1.75883 2.89281,2.16737 2.49497,0.89268 2.66366,0.77263 1.26641,-0.89889 -0.85946,-1.0282 -1.97338,-1.83574 -3.3522,-2.43067 -0.82468,-0.35584 -1.52981,-0.60326 -1.85882,-0.6651 -0.01,-0.51127 -0.0236,-0.97005 -0.0377,-1.42343 2.37883,1.19812 2.4303,1.06777 0.81457,-1.18208 -0.25089,-0.34935 -0.58167,-0.72322 -0.92497,-1.07854 -0.0758,-0.98954 -0.16594,-1.96147 -0.26877,-2.91338 0.83424,1.35018 1.44307,1.89674 2.70973,2.44164 0.91724,0.39459 1.77491,0.7172 1.90613,0.7172 0.21657,0 -0.2294,-0.79592 -1.44742,-2.58289 -0.32306,-0.47394 -2.20219,-1.75155 -3.3858,-2.40872 -0.064,-0.49474 -0.13079,-0.9836 -0.20159,-1.46252 0.003,0.002 0.006,0.004 0.008,0.005 0.72024,0.45766 1.394,0.8317 1.49749,0.8317 0.10346,0 -0.24892,-0.84968 -0.78303,-1.88832 -0.2065,-0.4016 -0.644,-1.00138 -1.17454,-1.65586 -0.6297,-3.35819 -1.42739,-6.13161 -2.31067,-7.90362 -0.76136,-1.52737 -2.60611,-4.15883 -4.73928,-6.75994 -0.43219,-0.52699 -0.81406,-1.00257 -1.17523,-1.45771 -0.90653,-5.83125 -0.86119,-14.21155 0.13919,-19.79573 0.41186,-2.299 0.69115,-4.23737 0.62052,-4.308 -0.22836,-0.22838 -2.27583,4.64834 -2.91886,6.95261 -0.78619,2.81694 -0.8815,9.8507 -0.28386,13.81743 -0.44732,-0.69483 -0.80682,-1.33038 -1.11694,-1.96785 -0.2641,-0.54282 -0.46816,-1.03229 -0.64179,-1.5489 -0.20385,-4.68197 0.22362,-10.22176 1.20266,-15.26007 0.35646,-1.8343 0.5923,-3.39376 0.52384,-3.46602 -0.22286,-0.23527 -1.93397,3.9199 -2.87293,6.9766 -0.27158,0.88411 -0.45827,1.57109 -0.59446,2.28119 -0.25891,-0.86961 -0.59636,-1.79231 -1.05043,-2.9216 0.44878,-3.19411 1.01625,-6.3787 1.41451,-7.70546 0.45733,-1.52362 -1.47931,2.4917 -2.34769,4.8675 -0.0294,0.0804 -0.0569,0.16142 -0.0857,0.24204 -0.20554,-0.54614 -0.39205,-1.06427 -0.56567,-1.56124 0.69816,-1.79608 1.53126,-3.55393 2.50951,-5.25423 0.98501,-1.71202 2.39929,-4.60253 3.14308,-6.42326 1.31429,-3.2174 1.32716,-3.28646 0.43813,-2.45741 -2.30821,2.15249 -5.03442,6.34782 -7.1295,10.68465 -0.0318,-0.13975 -0.0671,-0.28489 -0.0919,-0.41208 -0.0738,-0.37818 -0.19861,-0.83994 -0.35174,-1.33225 2.02463,-3.95761 4.2233,-7.00913 7.51005,-10.45289 2.57592,-2.69897 6.03339,-7.82727 4.78591,-7.09865 -1.52405,0.89017 -5.15848,4.06088 -7.46342,6.51104 -2.33897,2.48634 -4.33857,5.16779 -5.99405,8.01743 -0.22387,-0.47889 -0.43779,-0.88088 -0.61504,-1.12586 3.33291,-5.42591 8.27151,-10.76155 13.27852,-14.18358 2.82812,-1.93287 3.87416,-3.006 5.54425,-5.6903 0.17202,-0.27646 -0.93381,0.16922 -2.45741,0.99078 -7.57535,4.08485 -14.15139,10.50914 -18.58621,17.95746 -0.15342,-0.0168 -0.24799,-0.0309 -0.43129,-0.05 -0.26497,-0.0277 -0.50348,-0.0619 -0.74737,-0.0946 4.91534,-8.5256 12.3612,-15.5481 21.47697,-19.91708 0.93416,-0.44774 1.66117,-0.83703 2.27296,-1.22597 z m -3.50098,11.23182 c -0.0697,-0.0697 -1.04561,0.59402 -2.16875,1.47554 -1.67697,1.31617 -2.2599,2.07325 -3.25757,4.23258 -0.66817,1.44623 -1.15452,2.68928 -1.08129,2.76253 0.32262,0.32262 4.48105,-4.42887 5.50449,-6.28956 0.62141,-1.12975 1.07291,-2.11132 1.00312,-2.18109 z m 2.56026,2.57191 c -0.20631,-0.034 -0.90367,0.45103 -2.25788,1.42823 -1.33066,0.96019 -1.93628,1.73851 -2.73168,3.51127 -0.56201,1.25258 -0.97641,2.41408 -0.92084,2.58084 0.19119,0.57348 4.06313,-3.75314 5.21994,-5.83293 0.61168,-1.09973 0.89677,-1.65337 0.69046,-1.68741 z m 2.60963,2.54038 c -0.37206,0 -2.81989,1.67799 -3.40774,2.33604 -0.33007,0.3695 -1.00772,1.5951 -1.5064,2.72276 -0.49871,1.12766 -0.86073,2.09275 -0.80427,2.14475 0.3488,0.32134 4.20602,-3.83368 4.97652,-5.3605 0.51156,-1.01368 0.84552,-1.84305 0.74189,-1.84305 z m 8.21695,0.16661 c -0.15616,-0.0197 -0.83074,0.18241 -1.63324,0.49504 -1.2815,0.49926 -1.90331,1.02752 -2.68642,2.2812 -0.56043,0.89723 -0.95537,1.69248 -0.87764,1.76764 0.41701,0.40316 3.46235,-1.6707 4.29018,-2.92161 0.51767,-0.78225 0.94141,-1.50219 0.94141,-1.59964 0,-0.0122 -0.012,-0.0198 -0.0344,-0.0227 z m 46.7244,2.2908 h -1.10048 l 0.78781,1.14094 c 0.43331,0.62752 0.80382,1.1718 0.82348,1.20951 0.0829,0.15813 3.00046,0.72151 3.00046,0.57938 0,-0.0856 -0.23908,-0.61746 -0.5307,-1.1814 -0.63973,-1.2371 -1.51076,-1.74843 -2.98057,-1.74843 z m -39.66276,0 h -1.07924 c -1.46436,0 -2.32454,0.51793 -2.98674,1.79848 -0.30584,0.59147 -0.50477,1.11274 -0.44225,1.15809 0.0625,0.0453 0.74573,-0.0516 1.51805,-0.21531 1.04675,-0.22183 1.60568,-0.60872 2.19686,-1.51942 z m 2.64939,0.0261 c -1.08307,-0.0437 -1.5274,0.23514 -2.15641,1.19511 -0.70615,1.07774 -0.69187,1.09129 0.98323,0.95238 0.91932,-0.0763 1.52921,-0.38875 2.05426,-1.05317 l 0.74667,-0.94485 -1.12242,-0.11245 c -0.1832,-0.0183 -0.35061,-0.0308 -0.50533,-0.0371 z m 33.4061,0.013 c -0.11722,0.003 -0.24386,0.011 -0.38122,0.0226 l -1.34665,0.11381 0.73298,0.9284 c 0.52276,0.66163 1.13757,0.96704 2.14132,1.06276 1.62284,0.15477 1.70732,-0.0238 0.61366,-1.29521 -0.56695,-0.65912 -0.93952,-0.85582 -1.76009,-0.8324 z m -60.45543,0.0446 c -0.38906,0.0202 -3.38684,3.59884 -4.02621,4.83118 -0.35063,0.67579 -1.05075,2.8741 -1.55645,4.88464 -0.89463,3.55693 -1.03498,5.14872 -0.24204,2.74607 0.21661,-0.65622 1.12261,-2.36484 2.01311,-3.79719 1.48834,-2.39409 4.136,-8.36016 3.84107,-8.6551 -0.007,-0.007 -0.0169,-0.0103 -0.0295,-0.01 z m 46.80872,0.0439 c -0.25141,0.005 -0.52633,0.17043 -1.04769,0.50053 l -1.07444,0.68017 1.00518,0.71515 c 0.91037,0.64824 1.09532,0.66828 1.96511,0.21256 1.1739,-0.61509 1.18146,-0.82973 0.0583,-1.64766 -0.42693,-0.31089 -0.65505,-0.46584 -0.90645,-0.46075 z m -6.23335,0.0116 c -0.25136,5e-5 -0.47822,0.15262 -0.89684,0.45734 -0.47808,0.34798 -0.87443,0.74671 -0.88039,0.88655 -0.006,0.13986 0.43415,0.48512 0.97844,0.76657 0.91089,0.47105 1.06604,0.45037 1.9507,-0.25505 l 0.9613,-0.76658 -1.071,-0.63218 c -0.51557,-0.30454 -0.79084,-0.45669 -1.04221,-0.45665 z m -28.9637,0.01 c -0.2207,0.0461 -0.96145,0.45816 -1.78822,1.00244 -1.40633,0.92579 -1.86737,1.50446 -2.54242,3.19107 -0.45354,1.1332 -0.7781,2.10697 -0.72063,2.16394 0.0575,0.0569 0.92288,-0.63326 1.92259,-1.53382 1.57959,-1.42293 3.57362,-4.43695 3.1897,-4.82089 -0.009,-0.009 -0.0294,-0.009 -0.061,-0.003 z m 64.16692,0.0104 c -0.0302,-0.006 -0.0501,-0.005 -0.0583,0.003 -0.0658,0.0657 0.26862,0.88586 0.74325,1.82248 0.99276,1.95909 4.73108,5.42281 4.2655,3.95216 -0.86946,-2.74642 -1.59713,-3.84504 -3.21231,-4.85038 -0.80694,-0.50223 -1.52679,-0.88363 -1.73816,-0.92701 z m -19.49815,0.20227 c -0.37203,-0.0128 -0.76087,0.0572 -1.16219,0.21119 -0.49472,0.18982 -0.43929,0.36512 0.38808,1.2287 0.53076,0.554 1.0535,0.98404 1.16218,0.95512 0.1087,-0.0289 0.63261,-0.11841 1.16359,-0.19885 1.17723,-0.17833 1.20631,-0.45297 0.15289,-1.44262 -0.51055,-0.47962 -1.08451,-0.73211 -1.70455,-0.75354 z m -25.22068,0 c -0.65021,0.0361 -1.24321,0.32673 -1.74981,0.86599 -0.45276,0.48194 -0.75726,0.93354 -0.67606,1.00313 0.0812,0.0696 0.63996,0.21975 1.24105,0.33391 0.89218,0.16944 1.2664,0.0263 2.03984,-0.78097 0.81407,-0.84974 0.86675,-1.02062 0.37094,-1.21087 -0.42507,-0.16313 -0.83584,-0.23288 -1.22596,-0.21119 z m -11.82902,0.47242 c -0.26609,0.0148 -0.7958,0.14245 -1.36241,0.33666 -1.02021,0.34969 -1.58628,0.85187 -2.20098,1.95276 -0.45522,0.81519 -0.76761,1.54241 -0.69388,1.6161 0.0737,0.0737 0.77721,-0.1534 1.5633,-0.50533 1.28972,-0.57743 3.29608,-2.94343 2.86332,-3.3762 -0.0218,-0.0218 -0.0807,-0.0289 -0.16935,-0.024 z m 48.93564,0.007 c -0.0901,-0.004 -0.1515,0.005 -0.17484,0.0288 -0.0934,0.0934 0.2301,0.77374 0.71856,1.51188 0.56971,0.86089 1.40635,1.54543 2.33331,1.90956 0.79484,0.31222 1.44272,0.46183 1.43921,0.33255 -0.003,-0.12927 -0.35864,-0.85249 -0.78988,-1.60719 -0.56054,-0.98091 -1.17587,-1.50681 -2.15778,-1.84442 -0.56661,-0.19483 -1.09845,-0.32012 -1.36858,-0.33118 z m -15.0681,0.36614 c -0.22214,-4.8e-4 -0.48992,0.0786 -0.88312,0.21668 -0.62753,0.22029 -1.14094,0.51563 -1.14094,0.65617 0,0.14054 0.35544,0.57973 0.78988,0.9757 0.69517,0.63363 0.93156,0.6706 1.9747,0.30786 l 1.18552,-0.41208 -0.83446,-0.96404 c -0.47913,-0.55363 -0.72134,-0.77893 -1.09158,-0.78029 z m -18.82688,0.0508 c -0.60222,0.0213 -1.02153,0.39549 -1.45497,1.20539 -0.25516,0.47679 -0.0888,0.65862 0.87283,0.95375 1.03886,0.31883 1.28019,0.26777 1.91438,-0.40727 0.95042,-1.0117 0.92568,-1.1153 -0.37917,-1.57018 -0.36756,-0.12812 -0.67933,-0.19142 -0.95307,-0.18169 z m 9.43059,0.84885 c -0.1503,0 -0.64417,0.30039 -1.09706,0.66714 l -0.82349,0.66715 0.87217,0.72543 c 0.47979,0.39915 0.95184,0.72543 1.04838,0.72543 0.0965,0 0.56785,-0.32628 1.04768,-0.72543 l 0.87217,-0.72543 -0.82349,-0.66715 c -0.45293,-0.36675 -0.94604,-0.66714 -1.09636,-0.66714 z m -40.79959,0.0884 c -0.34603,0.0528 -1.80043,1.57043 -2.92915,3.10468 -0.85816,1.1665 -1.43827,2.60897 -2.09675,5.21376 -0.50072,1.98075 -0.84593,3.66572 -0.76725,3.7444 0.0787,0.0787 0.44442,-0.52585 0.81251,-1.3439 0.36812,-0.81805 1.27364,-2.42348 2.01241,-3.56749 1.14793,-1.77761 3.04502,-6.18877 3.04502,-7.08014 0,-0.0564 -0.0274,-0.0789 -0.0768,-0.0713 z m 81.59642,0.0226 c -0.0483,-0.003 -0.074,0.0234 -0.074,0.0837 0,0.69032 1.90463,5.30923 2.59797,6.29985 0.40519,0.57894 1.32499,2.1587 2.04395,3.5106 0.71898,1.35188 1.31022,2.29942 1.31373,2.10634 0.003,-0.19307 -0.39283,-1.91683 -0.88038,-3.83079 -0.63072,-2.47593 -1.22843,-3.94454 -2.07139,-5.09035 -1.16445,-1.5828 -2.5914,-3.05799 -2.92983,-3.0793 z m -11.63292,0.2105 0.73159,1.76009 c 0.53955,1.29828 1.22739,2.13472 2.61924,3.18558 l 1.88693,1.42481 -0.72885,-1.85404 c -0.87091,-2.21478 -1.27477,-2.69882 -3.10948,-3.72999 z m -58.334,0.0926 c -0.3121,-0.0164 -2.82307,1.5137 -3.28364,2.02544 -0.26979,0.29977 -0.81636,1.3738 -1.21498,2.38747 -0.3986,1.01369 -0.68794,1.83527 -0.64247,1.82523 0.0455,-0.01 0.86541,-0.63055 1.8218,-1.37887 1.06339,-0.832 2.05215,-2.0097 2.54517,-3.0313 0.44346,-0.91882 0.80635,-1.73038 0.80635,-1.80328 0,-0.0156 -0.0114,-0.0236 -0.0322,-0.0247 z m 35.19636,0.0665 c -0.25731,-0.037 -0.54615,0.10486 -1.10048,0.39152 l -1.13546,0.58692 0.79879,0.85023 c 0.93063,0.99059 0.89917,0.98679 2.21332,0.27494 l 1.01066,-0.54715 -0.87627,-0.87628 c -0.42773,-0.42772 -0.65324,-0.64322 -0.91056,-0.68018 z m -12.05324,4.9e-4 c -0.25748,0.0371 -0.48334,0.25295 -0.91192,0.68156 l -0.87766,0.87764 1.08198,0.5595 c 1.34877,0.69748 1.19724,0.71784 2.14475,-0.29073 l 0.7988,-0.85022 -1.13546,-0.58692 c -0.55443,-0.2867 -0.843,-0.428 -1.10049,-0.39083 z m 24.91487,0.92291 h -1.40423 l 0.71995,1.14093 c 0.58977,0.9349 0.97613,1.16081 2.14063,1.24927 l 1.42138,0.10765 -0.73709,-1.24859 c -0.64907,-1.10014 -0.90382,-1.24926 -2.14064,-1.24926 z m -3.97614,0 c -1.35817,0 -1.48844,0.31774 -0.65344,1.59209 0.38121,0.58182 0.89146,0.86531 1.5585,0.86531 1.29123,0 1.58136,-0.52502 0.8804,-1.59484 -0.42064,-0.64194 -0.87671,-0.86256 -1.78546,-0.86256 z m -29.82353,0 c -0.90878,0 -1.36555,0.22062 -1.78614,0.86256 -0.31073,0.47421 -0.46259,1.02713 -0.33804,1.22869 0.44339,0.71739 2.18577,0.40413 2.77762,-0.49916 0.83499,-1.27435 0.70474,-1.59209 -0.65344,-1.59209 z m -3.97066,0 c -1.23924,0 -1.4973,0.14876 -2.13446,1.2287 l -0.72544,1.2287 h 1.37201 c 0.75443,0 1.48822,-0.19747 1.63051,-0.43882 0.14225,-0.24136 0.48563,-0.79427 0.76314,-1.22871 0.49299,-0.77175 0.47186,-0.78987 -0.90576,-0.78987 z m 41.26721,0.36408 c -0.44601,0.009 -0.33041,0.40892 0.17346,1.32881 0.54433,0.99374 1.12865,1.48259 2.25309,1.88694 0.83486,0.30021 1.51806,0.48074 1.51806,0.40042 0,-0.0803 -0.31058,-0.75416 -0.68978,-1.49748 -0.45837,-0.89852 -1.064,-1.48243 -1.80739,-1.74158 -0.7098,-0.24743 -1.17984,-0.38262 -1.44744,-0.37711 z m -44.76958,4.9e-4 c -0.26728,-0.006 -0.73714,0.12882 -1.44742,0.37642 -0.75432,0.26296 -1.35047,0.84551 -1.83209,1.78958 -0.39269,0.76973 -0.66376,1.4323 -0.60201,1.4728 0.0617,0.0405 0.75334,-0.15685 1.53725,-0.43883 1.03102,-0.37083 1.63031,-0.88623 2.16532,-1.86293 0.5068,-0.92524 0.62444,-1.32701 0.17895,-1.33704 z m 60.30187,0.33734 c -0.52379,0 1.33766,4.56533 2.79132,6.84565 0.73849,1.15849 1.5905,2.58028 1.89311,3.15952 0.75832,1.4514 0.70981,0.67484 -0.17896,-2.86881 -0.63949,-2.54965 -1.02325,-3.33989 -2.46975,-5.078 -0.94209,-1.13206 -1.85833,-2.05836 -2.03572,-2.05836 z m -75.83483,0 c -0.17739,0 -1.0953,0.92939 -2.04053,2.06522 -1.48476,1.78411 -1.8271,2.50313 -2.51363,5.28165 -0.80722,3.26686 -0.82294,4.32459 -0.0384,2.5726 0.23812,-0.5318 1.04263,-1.91533 1.78821,-3.07382 1.45762,-2.2649 3.33414,-6.84565 2.80435,-6.84565 z m 49.3587,0.0946 c -0.16271,0.008 -0.33944,0.0332 -0.53482,0.0761 -1.24741,0.27398 -1.28741,0.42615 -0.39425,1.49679 0.3624,0.43444 0.79164,0.76887 0.95375,0.74258 2.10112,-0.34076 2.38603,-0.78444 1.19579,-1.86157 -0.36936,-0.33428 -0.73231,-0.47632 -1.22047,-0.45391 z m -22.88258,0 c -0.48816,-0.0224 -0.8511,0.11964 -1.22047,0.45392 -0.76742,0.69449 -0.89911,1.55542 -0.2393,1.56262 0.24136,0.003 0.75478,0.0822 1.14094,0.1769 0.47137,0.11556 0.90402,-0.10941 1.31647,-0.68498 0.80568,-1.12431 0.79491,-1.1561 -0.46282,-1.43234 -0.19539,-0.0429 -0.3721,-0.0687 -0.53482,-0.0761 z m 14.32141,0.29758 c -0.39547,-0.0193 -0.81901,0.14875 -1.28698,0.50259 -0.67769,0.51239 -0.67484,0.53424 0.17553,1.37337 l 0.86462,0.85297 0.98187,-0.72405 c 0.9337,-0.68846 0.95294,-0.7571 0.38465,-1.38504 -0.35664,-0.39409 -0.72423,-0.60054 -1.11969,-0.61984 z m -5.76299,0 c -0.39465,0.0212 -0.7627,0.22882 -1.11967,0.62326 -0.57279,0.63292 -0.55271,0.69828 0.42237,1.39259 l 1.023,0.72817 0.81525,-0.86806 c 0.79979,-0.85131 0.8024,-0.87883 0.13782,-1.3816 -0.46318,-0.35041 -0.88411,-0.51555 -1.27877,-0.49436 z m 29.59452,0.7844 c -0.0205,-0.003 -0.0308,-5e-4 -0.0308,0.007 0,0.88645 1.58134,3.23428 2.74744,4.079 0.80256,0.58135 1.53856,1.0566 1.63599,1.0566 0.16429,0 -1.05666,-3.47711 -1.29317,-3.68269 -0.28847,-0.25076 -2.75259,-1.41626 -3.05941,-1.45977 z m -53.4233,0 c -0.30683,0.0436 -2.77026,1.20901 -3.05873,1.45977 -0.0584,0.0508 -0.41334,0.90023 -0.78851,1.88762 -0.37518,0.9874 -0.56435,1.7843 -0.42032,1.77107 0.80308,-0.0737 3.10189,-2.29308 3.65526,-3.5291 0.35416,-0.79101 0.64385,-1.50312 0.64385,-1.58251 0,-0.008 -0.0111,-0.01 -0.0315,-0.007 z m 35.06609,0.011 c -0.18462,0.0142 -0.40855,0.0995 -0.72748,0.24479 -1.11335,0.50727 -1.13854,0.60959 -0.41003,1.6497 0.61067,0.87185 0.70649,0.8903 1.82318,0.35175 0.9528,-0.45953 0.97376,-0.67073 0.16661,-1.66753 -0.3462,-0.42753 -0.54457,-0.60233 -0.85228,-0.57871 z m -16.70888,0 c -0.3077,-0.0236 -0.50607,0.15118 -0.85228,0.57871 -0.8207,1.01353 -0.78951,1.20467 0.27153,1.6881 1.14897,0.52351 1.08076,0.53882 1.71895,-0.37232 0.72852,-1.04011 0.70264,-1.14243 -0.41071,-1.6497 -0.31892,-0.14531 -0.54287,-0.23061 -0.72749,-0.24479 z m 43.13084,0.9757 c -0.014,0.005 -0.0212,0.0178 -0.0212,0.0384 0,0.85845 1.70614,4.65913 2.92366,6.51241 0.84713,1.28951 1.72854,2.66024 1.95825,3.04641 l 0.41756,0.7021 -0.16044,-0.7021 c -1.11517,-4.89322 -1.45812,-5.92307 -2.34496,-7.03901 -0.86627,-1.09006 -2.56396,-2.64007 -2.77281,-2.5582 z m -69.55143,0.0254 c -0.0929,3.5e-4 -0.49435,0.23684 -0.97158,0.57665 -1.66461,1.18531 -2.80298,3.2208 -3.5476,6.34304 -0.65698,2.75482 -0.76855,4.00802 -0.23244,2.61101 0.12631,-0.32916 0.94014,-1.66783 1.80877,-2.9744 1.24594,-1.87417 2.96342,-5.6652 2.96342,-6.5419 0,-0.01 -0.007,-0.0145 -0.0205,-0.0144 z m 34.76235,0.43745 c -0.22312,-0.0114 -0.4444,0.0518 -0.69732,0.1872 -0.86637,0.46366 -0.88468,1.11839 -0.0521,1.87184 0.80312,0.72682 0.87481,0.72403 1.58525,-0.061 0.75969,-0.83945 0.73316,-1.20047 -0.1289,-1.73884 -0.25884,-0.16163 -0.4838,-0.24773 -0.70692,-0.25918 z m 17.03045,0.18239 c -0.6708,0 -1.21979,0.0716 -1.21979,0.15907 0,0.64212 0.91838,1.94819 1.3727,1.95208 0.30689,0.003 0.91357,0.10025 1.34801,0.21667 0.93333,0.25012 0.96608,0.0844 0.25438,-1.29178 -0.43719,-0.84544 -0.7597,-1.03604 -1.7553,-1.03604 z m -34.03485,0 c -0.99561,0 -1.31812,0.1906 -1.75529,1.03604 -0.29458,0.56966 -0.5355,1.12258 -0.5355,1.2287 0,0.10614 0.19747,0.16949 0.43882,0.14055 1.88199,-0.22558 2.31249,-0.42099 2.6727,-1.21156 0.5471,-1.2007 0.55215,-1.19373 -0.82073,-1.19373 z m 37.28215,0.0741 c -0.2615,-0.0135 -0.44611,0.002 -0.49162,0.0466 -0.19038,0.1904 0.80113,2.21437 1.1999,2.44918 0.43605,0.25676 2.54792,0.65913 2.54792,0.48544 0,-0.0883 -0.23154,-0.71462 -0.51425,-1.3912 -0.41439,-0.99183 -0.76119,-1.27619 -1.79094,-1.46938 -0.35121,-0.0659 -0.68952,-0.10724 -0.95101,-0.12067 z m -40.52533,0.005 c -0.26442,0.0105 -0.60391,0.05 -0.95513,0.11588 -1.02973,0.19318 -1.3772,0.47755 -1.79163,1.46937 -0.28267,0.67658 -0.51356,1.29013 -0.51356,1.36309 0,0.1823 0.70891,0.10999 1.74295,-0.17827 0.82965,-0.23126 2.3973,-2.33582 2.02064,-2.71247 -0.05,-0.05 -0.23886,-0.0681 -0.50327,-0.0576 z m 25.55254,0.004 c -0.21756,-0.0244 -0.45115,0.11532 -0.88313,0.39836 -0.86501,0.56678 -0.87864,0.62674 -0.33323,1.45909 0.68551,1.04624 0.87353,1.06475 1.9411,0.18787 l 0.82897,-0.68086 -0.76726,-0.77891 c -0.36726,-0.37282 -0.56889,-0.56111 -0.78645,-0.58555 z m -10.58456,0 c -0.21756,0.0244 -0.4185,0.21273 -0.78576,0.58555 l -0.76725,0.77891 0.82827,0.68086 c 1.06757,0.87688 1.25624,0.85837 1.9418,-0.18787 0.54536,-0.83235 0.53109,-0.89231 -0.33393,-1.45909 -0.43197,-0.28304 -0.66556,-0.4228 -0.88313,-0.39836 z m 18.86598,0.27837 c -0.32446,-0.0165 -0.68315,0.0497 -1.07375,0.19953 -0.48952,0.18786 -0.49178,0.31611 -0.0199,1.2287 0.52374,1.01282 0.66455,1.06269 2.17698,0.77137 0.93504,-0.18009 0.97094,-0.39091 0.2434,-1.4296 -0.33995,-0.48534 -0.786,-0.74261 -1.32674,-0.77 z m -27.17687,0.002 c -0.55041,0.0402 -0.99893,0.33094 -1.35625,0.87629 -0.32022,0.48872 -0.52147,0.94475 -0.44705,1.01271 0.0744,0.068 0.63952,0.2315 1.25544,0.3634 0.99561,0.2132 1.17949,0.12363 1.65862,-0.80291 0.48584,-0.9396 0.48524,-1.06291 -0.007,-1.25201 -0.40626,-0.1559 -0.77298,-0.22162 -1.10322,-0.19748 z m -10.77861,0.8036 c -0.19334,-0.0181 -0.76226,0.17 -1.372,0.46077 -0.94284,0.44959 -1.41653,0.99418 -1.84991,2.12897 -0.32035,0.83877 -0.51415,1.5936 -0.4306,1.67713 0.0835,0.0835 0.78146,-0.2231 1.55028,-0.68155 0.93866,-0.55974 1.54997,-1.25563 1.86157,-2.11731 0.25522,-0.70579 0.38999,-1.35708 0.29964,-1.44743 -0.0113,-0.0114 -0.0313,-0.018 -0.059,-0.0206 z m 48.75464,0.009 c -0.0282,0.003 -0.049,0.0113 -0.061,0.0233 -0.0966,0.0966 0.0571,0.75842 0.34147,1.47142 0.34321,0.86057 1.00664,1.58578 1.97401,2.15709 1.59753,0.94344 1.72495,0.76966 0.91604,-1.25202 -0.37671,-0.9415 -0.92462,-1.53572 -1.79918,-1.95276 -0.60504,-0.28852 -1.17376,-0.47073 -1.37131,-0.44705 z m -13.9628,0.0178 c -0.17786,0.0158 -0.39341,0.10917 -0.70006,0.24889 -1.03587,0.47197 -1.13911,0.89032 -0.445,1.80467 0.51982,0.68478 0.73521,0.71293 1.89654,0.24684 0.64577,-0.25918 0.73491,-0.44559 0.45047,-0.94279 -0.60105,-1.05068 -0.81067,-1.39231 -1.20195,-1.35761 z m -20.81943,0 c -0.3912,-0.0348 -0.60108,0.30591 -1.20127,1.35487 -0.28766,0.50272 -0.18356,0.68238 0.56086,0.96541 1.23805,0.4707 1.33773,0.45177 1.83826,-0.34969 0.62299,-0.99756 0.55151,-1.24329 -0.49847,-1.7217 -0.3066,-0.13968 -0.52156,-0.23307 -0.69938,-0.24889 z m -21.53525,0.2105 c -0.14112,0 -0.97296,0.76641 -1.84853,1.70249 -1.37338,1.46824 -1.67491,2.07297 -2.19412,4.40675 -0.33105,1.48791 -0.51959,2.78807 -0.41894,2.8887 0.10061,0.10062 0.28849,-0.14807 0.41688,-0.55265 0.12842,-0.40457 0.80389,-1.48255 1.50091,-2.3957 1.20683,-1.58102 3.08566,-6.04959 2.5438,-6.04959 z m 63.99277,0.1332 c -0.32704,0.32704 1.06831,4.16495 1.85334,5.0979 0.46716,0.55518 1.24286,1.69863 1.72444,2.54105 1.02951,1.80089 1.08239,1.48767 0.3161,-1.88145 -0.47664,-2.09584 -0.82533,-2.77322 -2.15985,-4.19994 -0.87514,-0.93559 -1.65528,-1.63658 -1.73403,-1.55783 z m 18.24201,0.31266 c -0.0322,-0.005 -0.0193,0.0979 0.0521,0.33597 0.61685,2.05501 1.64549,8.57701 1.99802,12.6676 0.48888,5.67226 0.054,12.21371 -1.23213,18.5341 -0.44774,2.20035 -0.7793,4.04318 -0.7364,4.09547 0.12665,0.15425 1.9119,-3.95314 2.64734,-6.09074 2.46443,-7.16296 2.33085,-17.06153 -0.32912,-24.33891 -0.7327,-2.00459 -2.22577,-5.17648 -2.39982,-5.20349 z m -52.74722,0.10081 -0.78098,0.78095 -0.78097,0.78097 0.91948,0.92016 0.92015,0.92017 0.61848,-0.94416 c 0.59936,-0.91474 0.59494,-0.9663 -0.13919,-1.70045 z m 4.94567,0.21391 c -0.18897,-0.0144 -0.37265,0.14241 -0.72063,0.45734 -0.39298,0.35564 -0.71446,0.76263 -0.71446,0.90439 0,0.14177 0.27805,0.60192 0.61847,1.02232 l 0.61915,0.76452 0.85502,-0.90988 0.85434,-0.90988 -0.75904,-0.75902 c -0.36968,-0.36969 -0.56387,-0.55536 -0.75285,-0.56979 z m 4.80717,0.6932 c -0.23503,0.0204 -0.5145,0.21296 -0.94073,0.565 -0.72153,0.59596 -0.72474,0.64262 -0.12204,1.5489 l 0.62121,0.93456 0.95375,-0.69526 c 0.91121,-0.66377 0.92874,-0.7325 0.39426,-1.54822 -0.375,-0.57232 -0.60426,-0.83125 -0.90645,-0.80498 z m -14.63955,0 c -0.28787,-0.0144 -0.48827,0.24033 -0.86051,0.80841 -0.53866,0.8221 -0.52116,0.88615 0.42305,1.5585 l 0.98461,0.70144 0.59584,-1.00793 c 0.57644,-0.97579 0.57014,-1.02637 -0.19061,-1.5592 -0.45167,-0.31636 -0.72848,-0.49001 -0.95238,-0.50122 z m 22.66591,0.65893 c -0.31365,-0.0127 -0.66512,0.0497 -1.03604,0.19198 -0.41942,0.16094 -0.44356,0.39151 -0.12753,1.22871 0.32146,0.85161 0.58892,1.03055 1.54067,1.03055 1.23611,0 1.46465,-0.51459 0.78852,-1.77793 -0.2256,-0.42154 -0.6429,-0.6522 -1.16562,-0.67331 z m 31.9662,0.0138 c -0.0163,-4.9e-4 -0.0308,0.005 -0.0432,0.0186 -0.0718,0.0756 0.16007,1.63791 0.51561,3.47219 0.35552,1.83428 0.83577,5.42824 1.06758,7.98657 0.47193,5.20839 0.0972,11.28022 -1.06758,17.28964 -0.35554,1.83429 -0.58741,3.39727 -0.51561,3.47288 0.15731,0.16567 1.36739,-2.56767 2.31479,-5.22817 1.69631,-4.76344 2.2017,-12.08868 1.19099,-17.25806 -0.6317,-3.23093 -2.95598,-9.73162 -3.46258,-9.75352 z m -62.57756,0.003 c -0.92245,0.0519 -1.56125,0.75915 -1.56125,1.88488 0,0.38715 0.34,0.54922 1.15123,0.54922 0.95171,0 1.21993,-0.17894 1.54136,-1.03055 0.31603,-0.8372 0.29188,-1.06777 -0.12753,-1.22871 -0.3573,-0.1371 -0.69633,-0.19216 -1.00381,-0.17484 z m 33.36771,4.9e-4 c -0.51751,0.005 -0.5128,0.17377 -0.33802,0.74326 0.13718,0.4471 0.40755,1.00998 0.60062,1.25133 0.19312,0.24135 0.87729,0.43883 1.52012,0.43883 h 1.16837 l -0.47723,-1.14095 c -0.39901,-0.95361 -0.68917,-1.15872 -1.769,-1.25133 -0.30168,-0.0259 -0.53236,-0.0428 -0.70486,-0.0411 z m -36.15629,0 c -0.17251,-0.002 -0.40317,0.0152 -0.70487,0.0411 -1.07981,0.0926 -1.3707,0.29773 -1.76969,1.25135 l -0.47721,1.14093 h 1.16905 c 1.24194,0 1.71778,-0.37926 2.12007,-1.69015 0.17477,-0.56949 0.18016,-0.73831 -0.33735,-0.74326 z m -10.89104,0.0281 c -0.0861,-0.0861 -0.85094,0.53839 -1.69976,1.38777 -1.25135,1.25216 -1.62303,1.92771 -1.96373,3.57093 -0.49015,2.36401 -0.33947,3.27288 0.33323,2.00966 0.25676,-0.48218 0.91163,-1.43162 1.45497,-2.10977 0.9256,-1.15529 2.22136,-4.51251 1.87529,-4.85859 z m 57.97334,0.0212 c -0.0345,-0.003 -0.0619,0.005 -0.0802,0.0233 -0.33754,0.33754 1.25338,4.1874 2.17834,5.27136 0.56047,0.65681 1.22131,1.49457 1.46801,1.86226 0.38243,0.57005 0.41613,0.40998 0.22969,-1.08678 -0.12024,-0.96541 -0.41713,-2.23169 -0.65961,-2.81395 -0.39435,-0.94695 -2.61842,-3.21738 -3.13621,-3.25621 z m -50.62854,0.34215 c -0.1957,-0.0116 -0.78225,0.19733 -1.41383,0.5115 -0.97093,0.48296 -1.43308,1.01066 -1.77655,2.02682 -0.25537,0.75547 -0.42406,1.41202 -0.37506,1.45909 0.049,0.0471 0.68033,-0.21945 1.40355,-0.59173 1.19434,-0.61479 2.69883,-2.90851 2.22086,-3.38648 -0.011,-0.011 -0.0309,-0.0176 -0.059,-0.0192 z m 43.22614,0.0191 c -0.0263,0.002 -0.0443,0.008 -0.0542,0.0178 -0.0782,0.0782 0.0974,0.71651 0.39083,1.41863 0.36651,0.87724 0.9818,1.50527 1.96648,2.00761 l 1.43304,0.73092 -0.25371,-0.81251 c -0.63601,-2.04052 -0.93716,-2.46004 -2.12554,-2.95657 -0.61067,-0.25514 -1.17345,-0.4209 -1.35692,-0.40591 z m -9.3435,0.37985 c -0.1154,0.002 -0.24949,0.0308 -0.41072,0.0795 -1.25127,0.37805 -1.47702,0.75606 -1.03329,1.72993 0.44831,0.98392 1.02822,1.11349 1.95277,0.43745 0.50665,-0.37046 0.54883,-0.62062 0.24204,-1.42755 -0.22789,-0.59937 -0.40462,-0.82594 -0.7508,-0.81936 z m -24.5172,0 c -0.34618,-0.007 -0.52291,0.21999 -0.7508,0.81936 -0.30679,0.80692 -0.26457,1.05709 0.24204,1.42755 0.92455,0.67604 1.50447,0.54646 1.95277,-0.43746 0.44374,-0.97386 0.21799,-1.35187 -1.03329,-1.72992 -0.16122,-0.0487 -0.29531,-0.0773 -0.41072,-0.0795 z m 12.25895,0.23861 c -0.18416,0 -0.58875,0.38784 -0.8989,0.8612 -0.52308,0.79833 -0.51748,0.92462 0.0795,1.74431 0.35397,0.486 0.72283,0.88314 0.81937,0.88314 0.0965,0 0.4647,-0.39714 0.81867,-0.88314 0.59698,-0.81969 0.60333,-0.94598 0.0802,-1.74431 -0.31016,-0.47336 -0.7147,-0.8612 -0.8989,-0.8612 z m 4.60627,0.3922 c -0.17437,-0.0245 -0.35957,0.13716 -0.71789,0.46145 -0.40094,0.36285 -0.72886,0.85464 -0.72886,1.09294 0,0.23832 0.27646,0.75554 0.61436,1.14916 0.61389,0.71517 0.6144,0.71512 1.37132,-0.24066 0.73943,-0.93371 0.74275,-0.97683 0.11519,-1.80877 -0.31598,-0.41892 -0.47976,-0.62966 -0.65412,-0.65412 z m -9.18375,0.009 c -0.24316,-0.0267 -0.42921,0.2136 -0.78165,0.75148 -0.4806,0.73349 -0.45812,0.88433 0.26534,1.79164 l 0.78989,0.99077 0.57184,-0.81662 c 0.73414,-1.04812 0.72061,-1.47045 -0.0699,-2.18588 -0.36284,-0.32838 -0.58635,-0.51066 -0.77548,-0.53139 z m 48.58184,0.0816 c -0.0111,-0.002 -0.021,0.002 -0.0288,0.009 -0.0859,0.0859 0.0872,1.33361 0.38465,2.77213 0.29749,1.43851 0.72419,4.6888 0.94827,7.22343 0.4457,5.04068 0.0731,11.5022 -0.94827,16.44079 -0.29749,1.43851 -0.4706,2.68618 -0.38465,2.77213 0.24966,0.24968 2.26258,-4.47629 2.94971,-6.92518 0.89032,-3.17309 0.89032,-12.18503 0,-15.35813 -0.66565,-2.37237 -2.57521,-6.88158 -2.92092,-6.93408 z m -34.87821,0.80363 c -0.0891,0.01 -0.18716,0.0497 -0.301,0.11519 -1.54169,0.88635 -1.5497,0.90414 -0.95034,2.06315 0.3128,0.60487 0.60395,1.09388 0.64727,1.08746 0.0433,-0.007 0.45252,-0.3232 0.90987,-0.70418 0.75235,-0.62673 0.79108,-0.79159 0.40043,-1.73472 -0.25635,-0.61885 -0.43905,-0.85697 -0.70623,-0.8269 z m -18.25368,0 c -0.2677,-0.0291 -0.45034,0.21228 -0.71034,0.83993 -0.24055,0.58074 -0.37663,1.09201 -0.30238,1.13614 0.0743,0.0442 0.47909,0.36952 0.89958,0.7227 0.75422,0.63341 0.77231,0.62637 1.34939,-0.48957 0.61621,-1.19163 0.60959,-1.20664 -0.93388,-2.09401 -0.11399,-0.0656 -0.21314,-0.10551 -0.30237,-0.11519 z m 49.7221,0.14673 c -0.01,-0.002 -0.0186,4.9e-4 -0.0253,0.008 -0.081,0.0809 0.0676,1.17232 0.32979,2.42518 0.2622,1.25286 0.66579,4.29197 0.89685,6.75377 0.44781,4.77149 0.0937,10.97332 -0.89685,15.70643 -0.2622,1.25286 -0.41072,2.34359 -0.32979,2.4245 0.21905,0.21904 2.09778,-4.05552 2.84069,-6.46373 0.92318,-2.9926 0.92318,-11.38914 0,-14.38174 -0.7197,-2.33294 -2.50528,-6.41806 -2.81533,-6.47195 z m -14.36803,0.007 c -0.0416,0.009 -0.0768,0.0268 -0.10559,0.0555 -0.4614,0.46138 0.70771,3.19835 2.01927,4.72763 0.79048,0.92171 1.51449,1.75475 1.60924,1.8513 0.18708,0.19067 -0.12131,-1.50953 -0.65137,-3.58876 -0.29658,-1.16325 -2.24927,-3.17783 -2.87155,-3.04571 z m -66.79917,0.01 c -0.28725,-0.0367 -1.55823,2.75902 -2.47044,5.45786 -0.69963,2.06994 -0.97233,3.70627 -1.10598,6.63721 -0.20867,4.57659 0.24529,7.62999 1.69221,11.38197 0.56654,1.4691 1.26963,2.97821 1.56263,3.35358 0.59641,0.76407 0.60969,0.9898 -0.15564,-2.65283 -0.18259,-0.86886 -0.51919,-3.59396 -0.74875,-6.05576 -0.44483,-4.77069 -0.0891,-10.98177 0.89958,-15.70575 0.26221,-1.25286 0.42022,-2.33409 0.35107,-2.40325 -0.007,-0.008 -0.0154,-0.0118 -0.0247,-0.013 z m 14.38791,0.0274 c -0.20088,0.002 -0.76217,0.31538 -1.35281,0.76588 -1.18566,0.90435 -1.49349,1.58255 -2.12624,4.6906 -0.12782,0.62752 -0.18018,1.13828 -0.11656,1.13478 0.0637,-0.003 0.78419,-0.8067 1.6017,-1.78478 1.35744,-1.62411 2.51849,-4.32647 2.05698,-4.78797 -0.0129,-0.013 -0.0344,-0.0187 -0.0631,-0.0186 z m 42.51716,0.98049 c -0.68055,0 -1.23692,0.0556 -1.23692,0.12342 0,0.0677 0.17337,0.62064 0.38533,1.2287 0.21198,0.60806 0.56742,1.08427 0.78988,1.05798 0.95661,-0.11307 1.98431,-0.36214 1.98431,-0.48065 0,-0.0706 -0.15453,-0.53322 -0.34283,-1.02849 -0.27815,-0.73156 -0.57454,-0.90096 -1.57977,-0.90096 z m -32.66558,0 c -1.01421,0 -1.30069,0.16707 -1.58936,0.92633 -0.19372,0.50949 -0.30875,0.96551 -0.25507,1.01271 0.0537,0.0473 0.59283,0.19141 1.19785,0.3209 1.00553,0.21521 1.13367,0.13925 1.492,-0.88862 0.21558,-0.61846 0.3922,-1.18018 0.3922,-1.2479 0,-0.0677 -0.55706,-0.12342 -1.23762,-0.12342 z m 35.87242,0.0397 c -0.57629,-0.0249 -0.60378,0.27965 -0.37643,1.18551 0.16002,0.63757 0.63089,1.12034 1.41042,1.44605 1.76259,0.73647 1.81806,0.67927 1.16562,-1.19236 -0.27312,-0.78342 -0.66925,-1.14741 -1.42961,-1.31442 -0.32496,-0.0714 -0.5779,-0.1165 -0.77,-0.12478 z m -39.07926,0 c -0.19208,0.008 -0.44509,0.0534 -0.77,0.12478 -0.76035,0.16701 -1.15583,0.531 -1.42892,1.31442 -0.20775,0.59594 -0.3778,1.21802 -0.3778,1.38229 0,0.94441 2.67853,-0.53971 2.95383,-1.63667 0.22717,-0.90512 0.19915,-1.20971 -0.37711,-1.18482 z m 33.38897,0.31128 c -0.0686,0 -0.53725,0.18812 -1.04084,0.41757 -0.7505,0.34197 -0.87502,0.57935 -0.69321,1.31646 0.12204,0.49462 0.32893,0.9999 0.46008,1.12312 0.18567,0.17447 1.25363,-0.12634 2.08304,-0.58692 0.12638,-0.0702 -0.65767,-2.27023 -0.80907,-2.27023 z m -15.97523,0 c -0.27133,0 -1.03474,1.63647 -1.03123,2.21126 0.001,0.23227 0.2888,0.85563 0.63835,1.38573 l 0.63561,0.96403 0.59652,-1.25133 c 0.5625,-1.17989 0.5618,-1.30907 -0.0116,-2.27982 -0.33439,-0.5661 -0.70712,-1.02987 -0.8276,-1.02987 z m -11.72275,0 c -0.15092,0 -0.93661,2.20071 -0.80977,2.26817 0.0492,0.0261 0.52842,0.23575 1.06484,0.46625 0.898,0.38591 1.00226,0.34848 1.31646,-0.4779 0.18764,-0.49361 0.34147,-1.02022 0.34147,-1.16974 0,-0.22758 -1.51241,-1.08678 -1.913,-1.08678 z m 15.98688,0.0679 c -0.21652,-0.007 -0.46014,0.31928 -0.84748,0.975 -0.58936,0.99791 -0.58839,1.09752 0.0315,2.30588 l 0.64795,1.2623 0.65344,-1.21293 c 0.56762,-1.05398 0.59394,-1.35701 0.2009,-2.30588 -0.28053,-0.67726 -0.46983,-1.01739 -0.68635,-1.02437 z m 35.21487,0.0452 c -0.011,-0.002 -0.0206,5e-4 -0.0281,0.008 -0.0716,0.0716 0.10167,1.53517 0.38466,3.25209 1.07266,6.50739 1.00894,13.07124 -0.18445,19.03464 -0.2061,1.029 -0.30584,1.93969 -0.22215,2.02339 0.26207,0.26205 2.30943,-4.49637 2.87772,-6.68863 0.30585,-1.17971 0.54236,-3.55963 0.54236,-5.4558 0,-1.89617 -0.23651,-4.27542 -0.54236,-5.45513 -0.52641,-2.03074 -2.48359,-6.65408 -2.82767,-6.71878 z m -43.94266,0.15908 -0.41962,1.27189 c -0.38314,1.16094 -0.34493,1.36058 0.4395,2.29286 l 0.85914,1.02094 0.46008,-1.39326 c 0.43672,-1.32324 0.41465,-1.43868 -0.43951,-2.29285 z m 13.18733,0.0247 -0.84131,0.79057 c -0.4628,0.43477 -0.8413,0.98188 -0.8413,1.21567 0,0.2338 0.19747,0.88931 0.43882,1.45635 l 0.43882,1.03055 0.81662,-0.99079 c 0.73663,-0.89366 0.77608,-1.11493 0.40249,-2.2469 z m -43.98517,0.1721 c -0.10395,-0.004 -0.41121,0.55454 -1.03672,1.8129 -1.68754,3.39471 -2.29834,6.05357 -2.29834,10.00516 0,1.87841 0.23757,4.28713 0.53825,5.4558 0.6873,2.67114 3.07853,7.62456 2.78926,5.77807 -0.83323,-5.31935 -0.98666,-7.06293 -0.98666,-11.23387 0,-4.17094 0.15343,-5.91453 0.98666,-11.23387 0.0591,-0.37751 0.0699,-0.58192 0.007,-0.58419 z m 14.39614,0.37094 c -0.16695,0.0192 -0.52001,0.20685 -1.17797,0.57664 -1.59268,0.89514 -1.65367,0.9956 -1.99596,3.27816 -0.13389,0.89354 -0.17869,1.62432 -0.0994,1.62432 0.4172,0 2.70183,-2.75688 2.90927,-3.51059 0.13283,-0.48271 0.32463,-1.17337 0.42648,-1.53519 0.0855,-0.30365 0.10455,-0.45262 -0.0624,-0.43334 z m 45.98524,5e-4 c -0.16565,-0.0193 -0.14396,0.12944 -0.0534,0.43265 0.10799,0.36182 0.29442,1.07225 0.41483,1.57839 0.12037,0.50614 0.8572,1.53298 1.63735,2.28188 l 1.41864,1.36103 -0.24479,-1.71209 c -0.33932,-2.37395 -0.39292,-2.46418 -1.99733,-3.36591 -0.65698,-0.36925 -1.00957,-0.55664 -1.17522,-0.57595 z m 10.9178,0.26741 c -0.0104,-0.002 -0.0186,0.002 -0.0253,0.009 -0.0543,0.0617 0.13693,1.37557 0.42511,2.92023 0.69443,3.72186 0.69443,12.77789 0,16.49975 -0.28818,1.54465 -0.47938,2.85919 -0.42511,2.92091 0.21622,0.24599 2.32967,-4.47516 2.80779,-6.27174 0.65391,-2.45719 0.65391,-7.34023 0,-9.79741 -0.46318,-1.74045 -2.4614,-6.22569 -2.78243,-6.28066 z m -67.77969,0.0268 c -0.0443,-0.0518 -0.5734,0.83211 -1.1766,1.96373 -2.67126,5.01186 -2.89531,11.88155 -0.56017,17.17787 0.93592,2.1227 2.10659,3.91712 1.77311,2.71797 -1.12131,-4.03195 -1.37533,-14.12301 -0.47721,-18.95716 0.28698,-1.54466 0.48511,-2.85069 0.44087,-2.90241 z m 44.57553,0.2681 -0.97981,0.79056 c -0.94375,0.76185 -0.96258,0.83987 -0.517,2.12075 l 0.46215,1.3295 0.97637,-1.0189 c 0.91118,-0.95102 0.94553,-1.09272 0.517,-2.12075 z m -21.41457,0 -0.46351,1.11076 c -0.43563,1.04526 -0.40274,1.17082 0.55058,2.12417 l 1.01341,1.01341 0.41689,-1.33361 c 0.39458,-1.26236 0.36493,-1.37546 -0.55059,-2.12417 z m 41.19384,1.23007 0.1817,0.87765 c 0.94797,4.57634 1.02623,10.97993 0.19678,16.12743 -0.17068,1.05007 -0.24602,1.9707 -0.17072,2.04601 0.28394,0.28392 1.92183,-2.98367 2.49237,-4.97173 1.16689,-4.06601 0.19227,-10.58141 -1.9747,-13.20171 z m -60.97311,0 -0.72611,0.87765 c -1.64637,1.99074 -2.29561,4.47352 -2.29561,8.77646 0,3.36954 0.12991,4.35647 0.78509,5.96799 0.43173,1.06196 1.11129,2.32576 1.51052,2.80847 l 0.72611,0.87765 -0.18651,-0.87765 c -0.67895,-3.19911 -0.94532,-9.05112 -0.57938,-12.72587 0.21629,-2.17218 0.47691,-4.34435 0.57938,-4.82705 z m 47.29691,0.55882 c -0.51153,0.014 -0.50224,0.22595 -0.38809,1.00381 0.10139,0.69067 0.36107,1.07195 0.73161,1.07511 0.31598,0.003 0.91252,0.0961 1.32607,0.20706 0.68902,0.18489 0.73211,0.10376 0.51424,-0.97021 -0.20993,-1.03485 -0.3837,-1.18424 -1.48376,-1.27738 -0.30164,-0.0256 -0.52956,-0.0431 -0.70007,-0.0385 z m -33.62757,0 c -0.17213,-0.005 -0.40232,0.0129 -0.70623,0.0385 -1.13698,0.0953 -1.2692,0.21489 -1.36858,1.24584 -0.0605,0.62752 0.0185,1.11776 0.17553,1.08883 0.15702,-0.0289 0.70365,-0.11694 1.21431,-0.19541 0.71935,-0.11055 0.96312,-0.37931 1.08265,-1.19374 0.11179,-0.76165 0.1187,-0.9703 -0.39768,-0.98392 z m 20.77965,0.14329 -0.7652,1.22871 c -0.49236,0.79074 -0.69612,1.54154 -0.57184,2.10635 0.10623,0.48271 0.29157,1.78601 0.41209,2.89623 0.22555,2.07827 0.82416,2.8087 0.82416,1.00587 0,-0.55708 0.24529,-1.78139 0.5451,-2.72071 0.47625,-1.49204 0.48214,-1.88541 0.05,-3.11221 z m -7.92556,0 -0.49231,1.40424 c -0.4272,1.21855 -0.42245,1.63632 0.0364,3.15952 0.29078,0.96542 0.58449,2.22922 0.65206,2.80848 0.14678,1.25852 0.46937,0.63504 0.72681,-1.40424 0.0975,-0.77233 0.27459,-1.87816 0.39356,-2.45741 0.15482,-0.75362 -0.002,-1.40266 -0.54989,-2.28188 z m 24.32109,0.19473 c -0.092,0.007 -0.16663,0.0337 -0.21736,0.0843 -0.10864,0.10873 -0.0978,0.64348 0.024,1.18826 0.12182,0.54478 0.84498,1.51037 1.6072,2.14611 l 1.3864,1.15603 -0.19335,-1.15603 c -0.10609,-0.63574 -0.25939,-1.49134 -0.34078,-1.90133 -0.12551,-0.63243 -1.62208,-1.56567 -2.26611,-1.51737 z m -40.7941,0.005 c -0.24109,0.009 -0.61109,0.14379 -1.14574,0.3874 -0.87901,0.40049 -0.98451,0.62946 -1.38092,3.01142 -0.10458,0.62751 -0.15451,1.13458 -0.11108,1.12654 0.0435,-0.008 0.67077,-0.53743 1.39394,-1.1766 0.77479,-0.68479 1.40565,-1.61628 1.53589,-2.26748 0.15247,-0.76231 0.10973,-1.09642 -0.29209,-1.08128 z m 5.93508,0.0247 c -0.59734,-0.0271 -0.94552,0.5474 -0.94552,1.65861 0,0.33782 0.44783,0.76569 1.03329,0.98667 0.98545,0.37198 1.0449,0.34018 1.27053,-0.68703 0.18019,-0.82052 0.0847,-1.18831 -0.39905,-1.54206 -0.36513,-0.26698 -0.68773,-0.40385 -0.95925,-0.41619 z m 14.54699,0.0205 c -0.22653,-0.0437 -0.46563,0.30198 -0.76657,1.0285 -0.36085,0.87111 -0.36951,1.50968 -0.0425,3.09301 0.22668,1.09735 0.41208,2.42008 0.41208,2.93943 0,0.51935 0.15798,0.94416 0.35106,0.94416 0.19309,0 0.35106,-0.48277 0.35106,-1.07306 0,-0.5903 0.17954,-1.78663 0.39906,-2.65831 0.30134,-1.19661 0.29755,-1.92223 -0.0144,-2.96343 -0.24953,-0.83284 -0.46323,-1.26655 -0.68977,-1.3103 z m 14.48049,0.005 c -0.27988,-0.009 -0.61652,0.12064 -0.99353,0.39631 -0.55126,0.40309 -0.61282,0.67517 -0.3442,1.5201 0.30145,0.94825 0.40397,1.00106 1.30893,0.67401 0.82179,-0.29699 0.96509,-0.52871 0.87764,-1.41932 -0.0741,-0.75486 -0.38239,-1.15585 -0.84884,-1.1711 z m -6.73868,0.69663 c -0.21776,-0.0285 -0.48369,0.30196 -0.88451,0.9805 -0.50025,0.84687 -0.57419,1.47442 -0.38191,3.24728 0.27045,2.49347 0.81763,3.91215 0.84748,2.19755 0.0101,-0.57925 0.32037,-1.71726 0.68908,-2.5294 0.5373,-1.18357 0.6024,-1.72353 0.32707,-2.72071 -0.20946,-0.7586 -0.37945,-1.14665 -0.59721,-1.17522 z m -15.57754,0.002 c -0.21845,0.0331 -0.39016,0.43 -0.60407,1.2047 -0.27323,0.9896 -0.23266,1.50736 0.1817,2.30862 0.2938,0.56813 0.65848,1.69271 0.81045,2.49855 0.33041,1.75208 0.59471,1.22659 0.89753,-1.78614 0.1763,-1.75392 0.0952,-2.40947 -0.39974,-3.24729 -0.40242,-0.68124 -0.66743,-1.01157 -0.88587,-0.97844 z m 35.30126,0.0514 c -0.009,-0.003 -0.0151,-0.002 -0.0198,0.002 -0.0756,0.0756 0.0382,1.89507 0.25302,4.04335 0.28661,2.86688 0.28661,4.94485 0,7.81173 -0.21478,2.14828 -0.32863,3.96773 -0.25302,4.04335 0.0756,0.0756 0.67461,-0.85226 1.33088,-2.06247 1.14139,-2.1049 1.19305,-2.36091 1.19305,-5.88708 0,-3.52617 -0.0517,-3.7815 -1.19305,-5.8864 -0.61526,-1.13457 -1.18049,-2.02111 -1.31098,-2.06523 z m -55.02363,0 c -0.13049,0.0441 -0.69503,0.93063 -1.31029,2.0652 -1.1414,2.10491 -1.19305,2.36025 -1.19305,5.8864 0,3.34211 0.0885,3.84994 0.95101,5.44142 1.89821,3.50238 1.83626,3.58401 1.3055,-1.68947 -0.27218,-2.70298 -0.26858,-4.8296 0.0138,-7.65335 0.215,-2.15058 0.3293,-3.97184 0.25368,-4.04746 -0.005,-0.005 -0.0118,-0.006 -0.0206,-0.003 z m 39.11698,1.00516 c -0.18661,-0.0218 -0.41947,0.18716 -0.8557,0.6795 -0.70696,0.79785 -0.79913,1.19468 -0.65207,2.80847 0.17859,1.95962 0.7541,3.60634 0.7748,2.21674 0.006,-0.39361 0.32693,-1.33588 0.71308,-2.09332 0.77294,-1.51607 0.87636,-2.53181 0.33942,-3.33506 -0.11192,-0.16741 -0.20756,-0.26322 -0.31953,-0.27633 z m -23.21032,0 c -0.11196,0.013 -0.20692,0.10892 -0.31883,0.27633 -0.45333,0.67829 -0.464,2.35229 -0.0172,2.62951 0.1901,0.11818 0.56784,0.95718 0.83993,1.86431 0.55408,1.84743 0.78952,1.55216 1.02164,-1.28218 0.13113,-1.60077 0.032,-2.01706 -0.66921,-2.80847 -0.43623,-0.49234 -0.66978,-0.7013 -0.85638,-0.6795 z m 35.56662,0.33873 c -0.11632,0.002 -0.0906,0.24545 0.0198,0.8228 0.45649,2.38569 0.57941,6.49868 0.27838,9.29551 -0.17668,1.64119 -0.27454,3.03293 -0.21735,3.09232 0.18167,0.18869 1.58373,-1.95037 2.12075,-3.23563 0.84048,-2.01156 0.67101,-5.37869 -0.37712,-7.48193 -0.49203,-0.98746 -1.14482,-2.0024 -1.45016,-2.25583 -0.18383,-0.15256 -0.30457,-0.23841 -0.37438,-0.23724 z m -47.95857,0.0534 c -0.0627,-0.0263 -0.17813,0.05 -0.35586,0.19748 -0.29587,0.24556 -0.94027,1.25467 -1.43235,2.24211 -0.68744,1.37949 -0.89478,2.3324 -0.89478,4.11466 0,1.78226 0.20734,2.73584 0.89478,4.11533 0.49208,0.98745 1.13648,1.99587 1.43235,2.24143 0.47396,0.39336 0.50592,0.28259 0.27014,-0.93592 -0.14716,-0.76067 -0.2674,-3.2004 -0.2674,-5.42084 0,-2.22045 0.12024,-4.6595 0.2674,-5.42015 0.14736,-0.76157 0.19012,-1.09039 0.0857,-1.1341 z m 42.10028,0.93732 c -1.051,0 -1.11989,0.0727 -0.97912,1.03191 0.11296,0.76984 0.42283,1.12617 1.22048,1.40423 1.38289,0.48208 1.3151,0.50639 1.3151,-0.47653 0,-1.50258 -0.3629,-1.95961 -1.55646,-1.95961 z m -36.20565,0 c -1.19353,0 -1.55645,0.45703 -1.55645,1.95961 0,0.92784 0.0862,0.95535 1.45428,0.4539 0.65107,-0.23862 0.97323,-0.64971 1.07992,-1.3768 0.14161,-0.96472 0.0744,-1.03671 -0.97775,-1.03671 z m 33.4918,0.38533 c -0.17476,-0.004 -0.41154,0.0986 -0.79741,0.30512 -0.74899,0.40083 -0.89631,0.72275 -0.8756,1.91437 0.0252,1.46096 0.60234,3.45014 0.65275,2.24966 0.0136,-0.32309 0.41963,-1.05685 0.90233,-1.63051 0.93607,-1.11243 1.06075,-1.68815 0.54373,-2.5054 -0.13835,-0.21871 -0.25103,-0.32918 -0.4258,-0.33324 z m -30.77796,0 c -0.17477,0.004 -0.28813,0.11452 -0.42648,0.33324 -0.49184,0.77749 -0.39658,1.60112 0.24684,2.13514 0.31922,0.26492 0.77005,0.93202 1.00175,1.48308 0.34277,0.81525 0.46388,0.89215 0.64864,0.41072 0.12487,-0.32542 0.22695,-1.26328 0.22695,-2.08373 0,-1.24197 -0.15124,-1.57209 -0.90096,-1.97333 -0.3859,-0.20654 -0.62197,-0.30919 -0.79674,-0.30512 z m 36.48266,0.66783 c -0.14997,0 -0.2722,2.0537 -0.2722,4.56377 0,2.51007 0.12223,4.56376 0.2722,4.56376 0.14999,0 0.63922,-0.51342 1.08678,-1.14093 0.65055,-0.91206 0.81388,-1.59874 0.81388,-3.42283 0,-1.82409 -0.16333,-2.51078 -0.81388,-3.42283 -0.44756,-0.62752 -0.93679,-1.14094 -1.08678,-1.14094 z m -42.18804,0 c -0.14997,0 -0.63849,0.51342 -1.08609,1.14094 -0.65052,0.91205 -0.81388,1.59874 -0.81388,3.42283 0,1.82409 0.16336,2.51077 0.81388,3.42283 0.4476,0.62751 0.93612,1.14093 1.08609,1.14093 0.14997,0 0.27289,-2.05369 0.27289,-4.56376 0,-2.51007 -0.12292,-4.56377 -0.27289,-4.56377 z m 22.89079,1.21843 c -0.0133,-0.002 -0.027,0.002 -0.0411,0.0103 -0.19309,0.11933 -0.35106,1.62011 -0.35106,3.33505 0,1.71496 0.15797,3.21572 0.35106,3.33507 0.2252,0.13917 0.35106,-1.05645 0.35106,-3.33507 0,-2.1362 -0.11054,-3.32032 -0.30992,-3.34534 z m -3.59286,0 c -0.19933,0.0242 -0.30991,1.20151 -0.30991,3.32477 0,3.52945 0.0289,3.7361 0.46761,3.29734 0.37546,-0.37546 0.26978,-6.37306 -0.11656,-6.61182 -0.014,-0.009 -0.0278,-0.012 -0.0411,-0.0103 z m -3.55104,0.1145 c -0.17655,-0.0198 -0.26091,0.99674 -0.26398,3.14307 -0.003,1.97909 0.0565,3.59836 0.13234,3.59836 0.61481,0 0.79909,-5.76361 0.21324,-6.67011 -0.029,-0.0449 -0.0564,-0.0685 -0.0816,-0.0713 z m 10.69426,0.002 c -0.0252,0.002 -0.052,0.0252 -0.0809,0.0699 -0.18714,0.28961 -0.34078,1.71141 -0.34078,3.15953 0,1.44812 0.15364,2.8699 0.34078,3.15952 0.23152,0.35828 0.34009,-0.65165 0.34009,-3.15952 0,-2.1944 -0.0832,-3.24188 -0.25918,-3.22947 z m -14.20484,0.34351 c -0.17713,-0.0477 -0.26061,0.8502 -0.26398,2.79819 -0.003,1.78601 0.0565,3.24729 0.13232,3.24729 0.60963,0 0.79095,-5.07408 0.21325,-5.96801 -0.0292,-0.0451 -0.0563,-0.0707 -0.0816,-0.0774 z m 17.71543,0.002 c -0.0252,0.006 -0.0518,0.031 -0.0809,0.0761 -0.18715,0.28962 -0.34079,1.55343 -0.34079,2.80847 0,1.25504 0.15364,2.51884 0.34079,2.80846 0.23278,0.36019 0.34008,-0.52722 0.34008,-2.80846 0,-1.99609 -0.0826,-2.92484 -0.25918,-2.88459 z m -21.24864,0.46351 c -0.1357,-0.0188 -0.20876,0.75341 -0.22216,2.3333 -0.0136,1.59293 0.0357,2.89624 0.1097,2.89624 0.55106,0 0.71809,-3.92348 0.21668,-5.09035 -0.038,-0.0884 -0.0729,-0.13485 -0.10422,-0.13919 z m 24.68449,0.0912 c -0.15336,0.0419 -0.30875,0.83085 -0.32706,2.32988 -0.0106,0.86886 0.13374,1.81673 0.32088,2.10635 0.23452,0.36286 0.33424,-0.34657 0.3209,-2.28187 -0.0103,-1.49123 -0.16136,-2.19629 -0.31472,-2.15436 z m 5.67316,0.22353 c -0.48618,0 -0.58899,0.36849 -0.58899,2.10635 0,1.73787 0.10281,2.10635 0.58899,2.10635 0.89839,0 1.6929,-0.98832 1.6929,-2.10635 0,-1.11803 -0.79451,-2.10635 -1.6929,-2.10635 z m -35.93345,0 c -1.50071,0 -2.28508,2.51727 -1.14095,3.66142 0.30343,0.30343 0.81685,0.55128 1.14095,0.55128 0.48621,0 0.58967,-0.36848 0.58967,-2.10635 0,-1.73786 -0.10346,-2.10635 -0.58967,-2.10635 z m 2.03298,0.17553 -0.13096,0.96541 c -0.0719,0.53098 -0.0719,1.39985 0,1.93082 l 0.13096,0.96542 0.28181,-0.96542 c 0.15495,-0.53097 0.15495,-1.39984 0,-1.93082 z m 31.88873,0.37642 c -0.0436,0.004 -0.0956,0.0551 -0.15701,0.15017 -0.18715,0.28962 -0.34207,0.95184 -0.34557,1.47142 -0.003,0.51958 0.15249,1.04218 0.34557,1.16151 0.21569,0.13331 0.34908,-0.43345 0.34557,-1.47074 -0.003,-0.91459 -0.0577,-1.32493 -0.18856,-1.31236 z m -1.66203,1.96511 c -0.17013,-0.10643 -0.55583,1.385 -0.57665,2.53489 -0.0165,0.91069 0.17995,1.52107 0.58968,1.83209 1.6612,1.26103 2.4606,-0.60712 1.00175,-2.34085 -0.50276,-0.59752 -0.92498,-1.35062 -0.93868,-1.67371 -0.009,-0.21862 -0.0369,-0.32785 -0.0761,-0.35242 z m -28.58522,0 c -0.0393,0.0246 -0.0669,0.1338 -0.0761,0.35242 -0.0136,0.32309 -0.43661,1.07619 -0.93936,1.67371 -0.66982,0.79619 -0.85552,1.31963 -0.69526,1.95825 0.4495,1.79084 2.32447,0.60267 2.28736,-1.44949 -0.0207,-1.14989 -0.40649,-2.64132 -0.57663,-2.53489 z m 17.80319,0.29141 c -0.19309,0 -0.35106,0.56245 -0.35106,1.24927 0,0.68683 -0.1718,1.93148 -0.38191,2.76596 -0.31205,1.23929 -0.28061,1.71365 0.17278,2.59042 0.82067,1.58701 1.11252,1.5969 1.57497,0.0534 0.34207,-1.14183 0.3199,-1.67901 -0.12342,-2.9847 -0.29731,-0.87575 -0.5403,-2.06043 -0.5403,-2.63293 0,-0.5725 -0.15798,-1.04152 -0.35106,-1.04152 z m -3.51058,0 c -0.19309,0 -0.35106,0.48346 -0.35106,1.07374 0,0.59029 -0.17954,1.78594 -0.39905,2.65762 -0.30139,1.19662 -0.29825,1.92292 0.0138,2.96412 0.22724,0.75846 0.55884,1.37886 0.7364,1.37886 0.69991,0 1.16525,-2.69431 0.75012,-4.34298 -0.21948,-0.87168 -0.39906,-2.06733 -0.39906,-2.65762 0,-0.59028 -0.15797,-1.07374 -0.35106,-1.07374 z m 10.76762,0.0268 c -0.17887,-0.0323 -0.5364,1.25221 -0.6692,2.71041 -0.13473,1.47951 -0.0304,2.03522 0.50876,2.72072 0.78724,1.00082 1.16945,1.08095 1.46663,0.30649 0.36032,-0.93899 0.24206,-1.69774 -0.48889,-3.13142 -0.38615,-0.75744 -0.70711,-1.69903 -0.71308,-2.09264 -0.005,-0.34565 -0.0446,-0.5028 -0.10422,-0.51356 z m -21.53526,0 c -0.0596,0.0107 -0.0997,0.16791 -0.1049,0.51356 -0.006,0.39361 -0.32624,1.3352 -0.7124,2.09264 -0.7309,1.43368 -0.84989,2.19243 -0.48956,3.13142 0.29721,0.77446 0.68006,0.69433 1.46731,-0.30649 0.53915,-0.6855 0.64284,-1.24121 0.50808,-2.72072 -0.13281,-1.4582 -0.48965,-2.74268 -0.66853,-2.71041 z m 3.54283,0.01 c -0.0891,0.0289 -0.15093,0.30999 -0.15565,0.9085 -0.004,0.54236 -0.30876,1.65075 -0.67744,2.46289 -0.53733,1.18357 -0.60239,1.72352 -0.32706,2.72072 0.41752,1.51207 0.67978,1.55107 1.46801,0.21666 0.49348,-0.83538 0.56415,-1.49509 0.37573,-3.52225 -0.15723,-1.69189 -0.4876,-2.85004 -0.68359,-2.78652 z m 3.55994,0.0686 c -0.11513,-0.01 -0.19677,0.26238 -0.19677,0.88725 0,0.56847 -0.2453,1.80264 -0.54511,2.74196 -0.47625,1.49204 -0.48282,1.88472 -0.0507,3.11153 l 0.49436,1.40423 0.76521,-1.2287 c 0.48916,-0.7856 0.69648,-1.54522 0.57526,-2.10635 -0.10429,-0.48271 -0.29023,-1.71165 -0.41345,-2.73099 -0.1525,-1.26149 -0.43686,-2.06236 -0.62875,-2.07893 z m 10.8787,0.0206 c -0.1895,0.0293 -0.50657,1.23546 -0.69251,2.94971 -0.19228,1.77285 -0.11834,2.40042 0.38191,3.2473 0.80164,1.35707 1.0628,1.32316 1.48172,-0.19405 0.27533,-0.99718 0.21023,-1.53713 -0.32707,-2.7207 -0.36871,-0.81215 -0.67891,-1.95084 -0.68908,-2.53008 -0.009,-0.53583 -0.0688,-0.76552 -0.15497,-0.75218 z m -26.75038,1.98088 c -0.20446,0 -0.13837,1.65913 0.0898,2.25377 0.13326,0.34726 0.63701,0.5547 1.3439,0.5547 1.051,0 1.11993,-0.072 0.97912,-1.03124 -0.11297,-0.76985 -0.42284,-1.12617 -1.22048,-1.40423 -0.58787,-0.20495 -1.12464,-0.373 -1.19235,-0.373 z m 38.98944,0.0487 c -0.17685,-0.0104 -0.50369,0.1134 -1.10871,0.32431 -0.79765,0.27806 -1.10752,0.63439 -1.22048,1.40423 -0.14077,0.95921 -0.0719,1.03124 0.97912,1.03124 1.19356,0 1.55646,-0.45636 1.55646,-1.95894 0,-0.55289 0.021,-0.78761 -0.20639,-0.80084 z m 3.71285,1.28629 -1.3144,1.14574 c -1.36808,1.19218 -1.77465,1.83525 -1.81632,2.87292 -0.0278,0.6918 0.47761,0.74827 1.65039,0.18308 0.77945,-0.37567 0.87948,-0.61223 1.28355,-3.02583 z m -46.33218,0 0.19678,1.17591 c 0.10827,0.64664 0.26157,1.50412 0.34077,1.90545 0.0792,0.40134 0.55057,0.91476 1.04701,1.14094 1.23415,0.56231 1.57564,0.51691 1.54685,-0.20364 -0.0417,-1.03767 -0.44893,-1.68074 -1.817,-2.87292 z m -3.24524,1.64902 0.24479,1.71278 c 0.13459,0.94183 0.31867,1.90417 0.40865,2.13857 0.0899,0.23441 0.80466,0.78671 1.58867,1.22733 1.31398,0.73851 1.4104,0.74975 1.22939,0.14332 -0.10795,-0.36184 -0.29509,-1.07226 -0.4155,-1.5784 -0.12042,-0.50614 -0.85718,-1.53299 -1.63736,-2.28188 z m 40.04879,0.074 c -0.27775,0.009 -0.35337,0.26169 -0.49436,0.90371 -0.18023,0.82052 -0.0854,1.18831 0.39838,1.54205 1.19468,0.87357 1.90544,0.52974 1.90544,-0.92153 0,-0.69342 -0.25298,-1.01277 -1.03397,-1.30755 -0.36957,-0.13949 -0.60883,-0.22198 -0.77549,-0.21668 z m -27.27492,0 c -0.16665,-0.005 -0.40594,0.0772 -0.77548,0.21668 -1.0148,0.38304 -1.25464,1.00779 -0.82074,2.13858 0.25985,0.67717 0.84722,0.70838 1.69222,0.0905 0.48375,-0.35374 0.57924,-0.72153 0.39905,-1.54205 -0.14102,-0.64202 -0.2173,-0.89486 -0.49505,-0.90371 z m 23.30563,0.77274 -0.41894,1.15672 c -0.23055,0.63615 -0.43093,1.26433 -0.44568,1.39601 -0.0147,0.13164 0.43172,0.56565 0.99216,0.96472 l 1.01888,0.72542 0.38946,-1.11694 c 0.35169,-1.00886 0.29612,-1.21404 -0.57321,-2.12144 z m -19.34113,0.005 -0.97639,1.01889 c -0.91113,0.95103 -0.94553,1.09273 -0.51699,2.12075 l 0.4594,1.10117 0.97911,-0.79057 c 0.94379,-0.76185 0.96332,-0.83987 0.51769,-2.12075 z m 28.55848,0.085 c -0.0978,0.006 -0.22618,0.0334 -0.39083,0.0775 -0.42137,0.113 -1.02449,0.20701 -1.34047,0.20981 -0.3684,0.003 -0.6304,0.38264 -0.72955,1.05798 -0.14555,0.99181 -0.0858,1.05317 1.02438,1.05317 1.16944,0 1.27535,-0.11024 1.62845,-1.7018 0.11798,-0.53172 0.1015,-0.7135 -0.19198,-0.69664 z m -37.60236,0.003 c -0.22133,0.0146 -0.24888,0.29218 -0.17827,1.03123 0.10363,1.08471 0.22356,1.19756 1.37201,1.29385 1.22045,0.10231 1.25364,0.0732 1.10117,-0.96541 -0.10862,-0.74017 -0.35334,-1.07101 -0.79126,-1.07101 -0.34846,0 -0.89473,-0.10021 -1.2143,-0.22284 -0.12048,-0.0462 -0.21556,-0.0707 -0.28935,-0.0658 z m 48.63464,0.11313 -1.27189,1.40424 c -1.51967,1.67779 -2.14728,2.76794 -2.47731,4.30046 -0.29534,1.37143 -0.0228,1.41622 1.4687,0.24067 1.08719,-0.85688 1.42979,-1.65043 2.0371,-4.71666 z m -59.83561,0 0.24342,1.22871 c 0.61793,3.12014 0.94702,3.87172 2.07276,4.73037 1.51724,1.15727 1.72951,1.11915 1.43371,-0.25438 -0.33002,-1.53252 -0.95832,-2.62267 -2.47797,-4.30046 z m 35.62834,0.58418 -0.46008,1.39328 c -0.43667,1.32323 -0.41465,1.43868 0.43952,2.29284 l 0.89958,0.89959 0.41962,-1.2719 c 0.38315,-1.16093 0.34498,-1.36058 -0.4395,-2.29285 z m -11.42106,0 -0.85914,1.02096 c -0.77647,0.92279 -0.81998,1.14034 -0.45253,2.25376 0.22366,0.67766 0.44576,1.23145 0.49368,1.23145 0.0479,0 0.45635,-0.393 0.90781,-0.87354 0.76562,-0.81497 0.79018,-0.96625 0.36546,-2.25307 z m 7.68078,0.24685 -0.64726,1.2623 c -0.62008,1.20836 -0.62173,1.30798 -0.0322,2.30587 0.77469,1.31145 0.97276,1.30447 1.53382,-0.05 0.39301,-0.94888 0.36669,-1.25121 -0.2009,-2.30521 z m -3.94049,0 -0.65345,1.21293 c -0.56759,1.05398 -0.59393,1.35632 -0.20089,2.3052 0.56106,1.35451 0.75914,1.36149 1.53382,0.05 0.58936,-0.99789 0.5884,-1.09752 -0.0315,-2.30587 z m 34.8741,0.75834 c -0.0558,-0.005 -0.15985,0.15795 -0.3634,0.48339 -0.22998,0.36769 -0.87737,1.20611 -1.43784,1.86293 -0.56049,0.65682 -1.31097,2.08021 -1.66821,3.16297 -0.3572,1.08275 -0.58046,2.03739 -0.49641,2.12143 0.084,0.084 0.80113,-0.45534 1.59347,-1.19854 1.07775,-1.01092 1.56863,-1.83773 1.95003,-3.28226 0.28037,-1.06195 0.50211,-2.24677 0.49298,-2.63294 -0.008,-0.34178 -0.0148,-0.51267 -0.0707,-0.51698 z m -65.80634,0.003 c -0.0562,0.006 -0.0641,0.17537 -0.072,0.51424 -0.036,1.53394 1.03758,4.536 1.97471,5.52095 1.27241,1.33733 2.40893,1.98997 2.11046,1.21224 -0.11511,-0.30001 -0.37942,-1.176 -0.58693,-1.94659 -0.20748,-0.7706 -0.8874,-2.02437 -1.5112,-2.78654 -0.62379,-0.76215 -1.32232,-1.68206 -1.55233,-2.04395 -0.20188,-0.31755 -0.30651,-0.47607 -0.36271,-0.47035 z m 20.03708,0.87901 c -0.16645,0.007 -0.39142,0.0918 -0.72817,0.23656 -0.53642,0.2305 -1.01569,0.44008 -1.06484,0.46625 -0.0492,0.0261 0.0847,0.54684 0.29758,1.1574 0.42337,1.21451 0.48102,1.23891 1.6353,0.68222 0.89165,-0.43003 0.92604,-0.57168 0.44842,-1.82797 -0.19637,-0.51649 -0.31089,-0.72495 -0.58829,-0.71446 z m 49.24625,0.0829 c -0.11964,0.0311 -0.36886,0.4087 -0.75492,1.08403 -0.48158,0.84243 -1.25728,1.98589 -1.72444,2.54106 -0.46715,0.55517 -1.10803,1.89768 -1.42342,2.98262 -0.31543,1.08495 -0.50869,2.0365 -0.42992,2.11527 0.0788,0.0788 0.85889,-0.62223 1.73403,-1.55782 1.33452,-1.42672 1.68321,-2.1041 2.15985,-4.19968 0.47893,-2.10569 0.63821,-3.01727 0.43882,-2.96548 z m -72.7562,0.007 c -0.2059,-0.0664 -0.047,0.84382 0.43402,2.95863 0.47621,2.09367 0.82527,2.7733 2.15435,4.19418 0.87237,0.93263 1.70124,1.69565 1.84236,1.69565 0.43472,0 -1.32738,-4.61023 -2.06384,-5.39959 -0.38156,-0.409 -1.09873,-1.45484 -1.59348,-2.32371 -0.39512,-0.69392 -0.64988,-1.08529 -0.77341,-1.12516 z m 14.56275,0.14123 c -0.0949,0.006 -0.1704,0.032 -0.2201,0.0816 -0.4055,0.40551 0.71423,2.60117 1.42344,2.79133 1.70913,0.45826 1.91613,0.25609 1.32607,-1.2959 -0.25741,-0.67708 -1.86508,-1.61861 -2.52941,-1.57703 z m -18.24133,0.45735 0.15976,0.70212 c 1.11517,4.89322 1.45812,5.92373 2.34496,7.03968 0.92402,1.16273 2.79475,2.84922 2.79475,2.5198 0,-0.85843 -1.70683,-4.65912 -2.92434,-6.5124 -0.84714,-1.28951 -1.72786,-2.66092 -1.95756,-3.04708 z m 23.68137,0.277 c -0.15901,0.008 -0.35543,0.0429 -0.60681,0.0967 -1.3976,0.29915 -1.35749,0.24219 -0.94278,1.33293 0.28867,0.75925 0.57515,0.92633 1.58936,0.92633 0.68056,0 1.23762,-0.055 1.23762,-0.12274 0,-0.0677 -0.17662,-0.62944 -0.3922,-1.2479 -0.26875,-0.7709 -0.40815,-1.00643 -0.88519,-0.9853 z m 56.2825,0.0165 c -0.0383,-0.002 -0.13014,0.14024 -0.28523,0.40865 -0.22312,0.38617 -1.09877,1.75758 -1.94591,3.04708 -0.84714,1.2895 -1.8522,3.25062 -2.2332,4.35807 -0.38104,1.10743 -0.63866,2.06766 -0.57253,2.13377 0.16925,0.16924 2.60577,-2.23489 3.1993,-3.15678 0.44138,-0.68555 1.13395,-3.08539 1.74089,-6.03107 0.10668,-0.51766 0.14595,-0.75757 0.0967,-0.75972 z m 20.66583,0.33323 c 0.17397,0.3332 0.36802,0.6606 0.59242,1.00793 0.0616,0.0954 0.12394,0.18213 0.18581,0.27426 -0.45779,1.68848 -1.00997,3.34854 -1.65587,4.97241 -0.31803,-0.21351 -0.62383,-0.41747 -0.88999,-0.59172 0.71781,-1.83529 1.30834,-3.72352 1.76763,-5.66288 z m -69.13248,0.0953 c -0.16711,-0.007 -0.37861,0.14331 -0.74805,0.41207 -0.46973,0.34168 -0.85228,0.77918 -0.85228,0.97227 4.9e-4,0.19309 0.19861,0.70588 0.4395,1.13956 0.45098,0.81186 0.59154,0.78364 2.28326,-0.4635 0.0625,-0.0461 -0.14037,-0.57561 -0.45117,-1.1766 -0.31427,-0.60776 -0.4564,-0.87536 -0.67126,-0.8838 z m 4.25316,0.43401 -0.78989,0.99079 c -0.72346,0.90729 -0.74594,1.05814 -0.26534,1.79162 0.6346,0.96856 0.86568,0.99128 1.61884,0.15908 0.72452,-0.80077 0.72523,-1.10119 0.008,-2.12487 z m -21.03472,0.3785 0.2537,0.81249 c 0.63404,2.03421 0.93431,2.4586 2.07686,2.936 1.84654,0.77153 1.82334,0.79443 1.06483,-1.02094 -0.36176,-0.86578 -0.98203,-1.49654 -1.96237,-1.99665 z m 68.41391,0.23174 c -0.0784,0.002 -0.23682,0.23758 -0.47379,0.69115 -0.30261,0.57924 -1.15462,2.00103 -1.89311,3.15952 -0.73852,1.1585 -1.74128,3.1727 -2.2284,4.47601 -0.48712,1.30329 -0.74031,2.36963 -0.56292,2.36963 0.17739,0 1.09363,-0.9256 2.03572,-2.05767 1.4465,-1.7381 1.83026,-2.52835 2.46975,-5.07801 0.61103,-2.43625 0.82518,-3.56481 0.65275,-3.56063 z m 3.59562,0.66851 c -0.0703,-0.05 -0.63216,0.86228 -1.3062,2.12968 -0.71897,1.35188 -1.65848,2.95013 -2.08783,3.55171 -0.42939,0.60161 -1.19204,2.23499 -1.69496,3.62922 -0.50293,1.39423 -0.8514,2.59747 -0.77479,2.67407 0.17395,0.17394 1.96429,-1.72461 3.17941,-3.37139 0.76717,-1.03971 2.71472,-7.25516 2.6919,-8.59065 -2.1e-4,-0.012 -0.003,-0.0193 -0.008,-0.0227 z m -58.33676,0.22971 c -0.30727,-0.0377 -0.67007,0.10253 -1.10186,0.41825 -0.50169,0.36687 -0.54745,0.6244 -0.25095,1.40423 0.39259,1.03263 0.50531,1.07211 1.69702,0.5931 0.87339,-0.35105 0.97009,-0.75193 0.42648,-1.76764 -0.2112,-0.39463 -0.46341,-0.61024 -0.77069,-0.64794 z m 61.691,0.41071 c -0.10137,0.0473 -0.30966,0.48104 -0.49916,1.05523 -0.21656,0.65622 -1.12195,2.36485 -2.01241,3.7972 -0.89045,1.43235 -2.14758,3.9376 -2.79338,5.56687 -0.64578,1.62927 -1.11706,3.01884 -1.0477,3.08822 0.22261,0.22259 3.39498,-3.55016 4.055,-4.82225 0.66006,-1.27225 2.58527,-8.43057 2.33468,-8.68116 -0.01,-0.01 -0.0226,-0.0109 -0.037,-0.004 z m -65.72474,0.61092 c -1.23615,0 -1.46393,0.51528 -0.78783,1.7786 0.20123,0.37602 0.7104,0.66672 1.14094,0.65138 1.43155,-0.051 1.61568,-0.26633 1.19031,-1.39326 -0.32367,-0.85755 -0.5903,-1.03672 -1.54342,-1.03672 z m -4.16128,0 h -1.16905 l 0.47721,1.14094 c 0.39899,0.95361 0.68988,1.15941 1.76969,1.25202 1.20677,0.1035 1.27525,0.0572 1.04222,-0.70212 -0.40229,-1.31089 -0.87813,-1.69084 -2.12007,-1.69084 z m 101.8111,0.0151 c 0.1615,0.009 0.23724,0.0528 0.23724,0.13028 0,0.30802 -0.3571,0.76673 -0.94553,1.29452 0.12094,-0.47498 0.23094,-0.94017 0.33323,-1.40012 0.15172,-0.0188 0.2821,-0.0297 0.37506,-0.0247 z m -18.71376,0.46008 c 0.3039,0.27901 0.61651,0.5302 0.94074,0.7508 -0.42427,1.31285 -0.9032,2.60429 -1.43441,3.87124 -0.31527,-0.16956 -0.63925,-0.35185 -0.99146,-0.56635 0.5472,-1.31793 1.0408,-2.67168 1.48513,-4.05569 z m -91.19637,0.0226 c -0.0797,0.018 -0.12479,0.0739 -0.12479,0.17484 0,0.39974 1.07049,3.18901 1.2239,3.18901 0.052,0 0.66646,0.23917 1.36584,0.53138 1.41055,0.58938 1.49722,0.44566 0.77411,-1.28492 -0.42333,-1.01316 -2.68112,-2.73645 -3.23906,-2.61031 z m 106.80957,0.18649 c -0.22679,0.98786 -0.47533,1.96891 -0.74669,2.94081 -0.44728,0.25952 -0.91147,0.51348 -1.3864,0.75628 0.34996,-1.11175 0.6741,-2.23695 0.96953,-3.37552 0.0836,-0.024 0.13684,-0.0376 0.22283,-0.0624 0.36755,-0.10572 0.62537,-0.17209 0.94073,-0.25918 z m -3.85753,1.06141 c -0.35111,1.31597 -0.75251,2.62044 -1.1951,3.91443 -0.44847,0.16164 -0.88797,0.30237 -1.32059,0.42443 0.47928,-1.32673 0.91056,-2.67495 1.29384,-4.04197 0.37163,-0.0833 0.78211,-0.18406 1.22185,-0.29689 z m -8.65717,0.49025 c 0.36689,0.10456 0.75261,0.18188 1.1533,0.23998 -0.4279,1.31115 -0.90887,2.60503 -1.44196,3.87946 -0.0724,-0.017 -0.14522,-0.0316 -0.21735,-0.0501 -0.32715,-0.0837 -0.63516,-0.17694 -0.93868,-0.27632 0.52408,-1.23863 1.00599,-2.50347 1.44469,-3.79308 z m 4.80101,0.24409 c -0.40843,1.39481 -0.87007,2.77011 -1.3823,4.12151 -0.42382,0.0385 -0.84105,0.0554 -1.2527,0.0508 0.5311,-1.33338 1.01205,-2.69283 1.44058,-4.07626 0.27054,-0.0129 0.54826,-0.0324 0.83377,-0.0582 0.12288,-0.0111 0.24072,-0.0252 0.36065,-0.0377 z m -102.14982,0.0386 c -0.027,-0.008 -0.0448,-0.008 -0.0521,5e-4 -0.059,0.0625 0.19189,0.91086 0.55745,1.88556 0.56138,1.49676 0.91037,1.89137 2.24622,2.54037 0.86993,0.42265 1.58183,0.70925 1.58183,0.6363 0,-0.88987 -1.59059,-3.22955 -2.78311,-4.09339 -0.71941,-0.52114 -1.3615,-0.91977 -1.55028,-0.96953 z m 7.74591,0.37848 c -0.073,0.003 -0.12144,0.0131 -0.1385,0.0302 -0.0682,0.0682 0.10823,0.68068 0.3922,1.36034 0.39227,0.93881 0.7837,1.28878 1.62844,1.45772 2.01824,0.40365 2.09452,0.30365 1.05935,-1.39395 -0.44211,-0.725 -1.04809,-1.1668 -1.81014,-1.31921 -0.47254,-0.0945 -0.91235,-0.14465 -1.13135,-0.13507 z m 4.19077,0.73162 c -0.0798,0.005 -0.13269,0.0175 -0.15084,0.0356 -0.0726,0.0727 0.12039,0.62054 0.42922,1.21773 0.46417,0.89761 0.77308,1.08541 1.78135,1.08541 1.36986,0 1.3666,0.005 0.83033,-1.17248 -0.27158,-0.59602 -0.77027,-0.91607 -1.64901,-1.05867 -0.51967,-0.0843 -1.00176,-0.12387 -1.24105,-0.10764 z m -15.05164,0.85227 c -0.19333,0.008 0.0459,0.52107 0.45117,1.55165 0.40351,1.02608 0.95411,2.11102 1.2239,2.41078 0.491,0.54553 3.31587,2.25006 3.31587,2.00076 0,-0.74707 -1.93712,-3.79235 -2.84756,-4.47668 -1.32424,-0.99515 -1.95005,-1.49396 -2.14338,-1.48651 z m 91.7072,0.95443 c 0.16445,0.40793 0.34492,0.83562 0.54236,1.28082 -3.03392,6.0831 -7.42586,11.51068 -13.00494,15.74759 -0.15936,-0.35196 -0.32607,-0.69807 -0.50122,-1.03947 1.7,-1.40993 3.8719,-3.37231 5.17949,-4.75369 3.24658,-3.4298 5.84588,-7.18867 7.78431,-11.23525 z m -83.87694,0.0453 c -0.0203,0.002 -0.0309,0.008 -0.0309,0.0178 0,0.0803 0.30988,0.75415 0.68909,1.49748 0.45841,0.89851 1.06465,1.48242 1.80809,1.74157 1.89273,0.65982 2.07944,0.52012 1.27328,-0.95169 -0.54436,-0.99374 -1.12865,-1.48328 -2.25309,-1.88763 -0.7305,-0.26268 -1.34435,-0.43282 -1.48651,-0.41756 z m -10.66341,1.22665 c -0.10621,0.0124 -0.13675,0.11937 -0.0652,0.34557 0.6925,2.18744 1.5666,3.7462 2.40598,4.28881 0.5055,0.32676 1.31442,0.84899 1.79712,1.16082 1.08677,0.70207 1.09108,0.53326 0.0384,-1.5441 -0.82215,-1.62242 -3.60278,-4.318 -4.17636,-4.2511 z m 15.19563,0.27358 0.73708,1.24859 c 0.64911,1.10014 0.90451,1.24859 2.14133,1.24859 h 1.40354 l -0.71926,-1.14094 c -0.58981,-0.93492 -0.97679,-1.16014 -2.14132,-1.24859 z m -6.70371,1.20334 c -0.11222,-0.012 -0.19692,0.003 -0.24547,0.0521 -0.31536,0.31537 1.4539,3.06031 2.13721,3.31586 2.63725,0.98629 2.74583,0.9225 1.59896,-0.93318 -0.56794,-0.91892 -2.70518,-2.3512 -3.4907,-2.43479 z m 87.87572,1.22527 c 0.21063,0.41271 0.42013,0.81354 0.62121,1.17933 -3.43169,5.97347 -8.09592,11.20988 -13.69952,15.31083 -0.0847,-0.3653 -0.19891,-0.75123 -0.32431,-1.14437 5.56491,-4.11594 10.07946,-9.29661 13.40262,-15.34579 z m -83.06101,0.61504 c -0.0849,-0.005 -0.13934,-0.003 -0.15496,0.008 -0.27305,0.1981 1.06149,2.26689 1.6737,2.59455 0.37149,0.1988 1.16159,0.36134 1.75529,0.36134 h 1.07924 l -0.79332,-1.22116 c -0.59118,-0.91071 -1.15011,-1.29761 -2.19686,-1.51942 -0.57924,-0.12277 -1.10842,-0.20776 -1.36309,-0.22353 z m -7.7898,0.6404 c -0.0963,0.006 -0.15016,0.0511 -0.15016,0.1433 0,0.15854 0.44737,0.99014 0.99421,1.84854 0.75784,1.18963 1.3839,1.70301 2.63294,2.15847 0.90128,0.32864 1.63873,0.52273 1.63873,0.43128 0,-0.0914 -0.42404,-0.80651 -0.94209,-1.58936 -0.7571,-1.14404 -3.49978,-3.03216 -4.17363,-2.99223 z m 92.88654,2.15983 c 0.23754,0.33259 0.48465,0.66513 0.73983,0.99832 -1.44631,2.31507 -3.08342,4.53513 -4.90591,6.64065 -0.11954,-0.0902 -0.2287,-0.16545 -0.31747,-0.21325 -0.2794,-0.15047 -0.525,-0.22695 -0.76588,-0.17827 1.94153,-2.24444 3.69896,-4.66584 5.24943,-7.24745 z m -95.91099,0.11863 0.99832,1.80534 c 0.54913,0.99296 1.43135,2.03394 1.96099,2.31274 1.55182,0.81685 2.72345,1.19826 2.72345,0.88656 0,-0.86708 -2.30348,-3.29126 -3.89181,-4.09614 z m 8.38358,0.0473 c -0.33722,-0.003 0.79319,1.99793 1.43029,2.53077 0.48281,0.40381 3.24112,1.00019 3.24112,0.70075 0,-0.10067 -0.39814,-0.70485 -0.8845,-1.34254 -0.75552,-0.9905 -2.53924,-1.88035 -3.78691,-1.88898 z m 89.89294,2.82491 c 0.2564,0.29543 0.51419,0.59058 0.78165,0.88314 -1.4282,2.14419 -3.04602,4.23801 -4.80991,6.23472 -0.23806,-0.26712 -0.4748,-0.52394 -0.70555,-0.76864 1.72659,-1.9967 3.30995,-4.11677 4.73381,-6.34922 z m -92.25985,0.0534 c -0.20193,0.0104 0.0176,0.48869 0.64659,1.40288 0.88576,1.28737 1.40039,1.67044 2.67133,1.99047 0.86571,0.21798 1.67222,0.39631 1.79233,0.39631 0.12008,0 -0.22653,-0.63149 -0.77001,-1.40355 -0.69032,-0.98061 -1.39147,-1.51533 -2.32645,-1.77449 -0.73612,-0.20405 -1.59188,-0.46818 -1.90133,-0.58693 -0.0461,-0.0176 -0.0836,-0.0262 -0.11246,-0.0247 z m 94.72206,2.56987 c 0.26579,0.26283 0.53479,0.52252 0.8077,0.78028 -1.52381,2.25271 -3.22044,4.42515 -5.05949,6.4843 -0.0772,-0.10645 -0.14988,-0.21133 -0.22969,-0.31883 -0.13095,-0.17636 -0.27461,-0.35815 -0.41552,-0.53893 1.77516,-2.01924 3.41189,-4.15968 4.897,-6.40682 z m -97.02588,0.37026 c -0.0881,-0.008 -0.13643,-1.9e-4 -0.13643,0.0253 0,0.10221 0.43443,0.79902 0.9654,1.54823 0.66288,0.93528 1.45245,1.52991 2.5198,1.89859 2.44446,0.84436 2.6602,0.68084 1.26162,-0.95512 -0.87094,-1.01874 -1.82621,-1.67954 -3.01142,-2.08441 -0.71603,-0.24461 -1.33453,-0.40896 -1.59897,-0.43266 z m 99.64511,2.04327 c 0.0308,0.0263 0.0604,0.054 0.0912,0.0802 0.26579,0.22579 0.5201,0.45628 0.76109,0.68223 -1.74079,2.55389 -3.66623,4.96935 -5.75202,7.23167 -0.16987,-0.32705 -0.35036,-0.65394 -0.54373,-0.98187 1.97442,-2.18669 3.79272,-4.53039 5.44348,-7.01226 z m -13.85311,0.51219 c -0.31149,0.60444 -0.66872,1.46362 -1.10117,2.62745 -2.4226,2.34485 -5.0043,4.42921 -7.73906,6.23677 0.11403,-0.46698 0.2076,-0.92006 0.26878,-1.33978 0.009,-0.0623 0.0118,-0.10356 0.0198,-0.16181 3.1251,-2.12235 5.98611,-4.59384 8.55157,-7.36263 z m -87.99503,0.34968 c -0.16864,-0.0132 -0.24303,0.0261 -0.17963,0.13508 1.05896,1.8202 2.42081,3.06923 3.89318,3.57092 0.90071,0.30692 1.77821,0.55744 1.95002,0.55744 0.36563,0 -0.77127,-1.6672 -1.71621,-2.51706 -0.71703,-0.64489 -3.21656,-1.6891 -3.94736,-1.74638 z m 5.93921,1.87392 c -0.33072,-0.0451 -0.14723,0.26434 0.66577,1.19991 0.65255,0.75088 1.35988,1.46446 1.57154,1.58524 0.21161,0.12079 1.17454,0.33124 2.13995,0.46762 l 1.75529,0.24752 -1.35692,-1.40149 c -0.89636,-0.92578 -1.79012,-1.47798 -2.63295,-1.62708 -0.70177,-0.12414 -1.58844,-0.31819 -1.9699,-0.43127 -0.0679,-0.0202 -0.12554,-0.034 -0.17278,-0.0405 z m 98.11195,0.2818 c 0.0488,0.40868 0.0892,0.99268 0.12754,1.68398 -1.75875,2.39383 -3.70041,4.69528 -5.82059,6.88884 -0.10886,-0.40161 -0.23212,-0.79402 -0.36613,-1.18071 2.19247,-2.30892 4.21968,-4.77857 6.05918,-7.39211 z m -100.09351,2.95725 c -0.0343,0.003 -0.057,0.008 -0.0665,0.0178 -0.0764,0.0764 0.46906,0.7864 1.21225,1.57771 1.17833,1.25461 1.59855,1.46454 3.28227,1.64421 l 1.93081,0.20639 -1.24859,-1.28357 c -0.86859,-0.89328 -1.82463,-1.43629 -3.14307,-1.78409 -0.91188,-0.24054 -1.72657,-0.39481 -1.96716,-0.37848 z m 81.27966,1.94591 c -0.19868,0.59425 -0.39062,1.16406 -0.61299,1.83689 -2.43333,1.91863 -4.97335,3.61499 -7.54571,5.01561 0.29892,-0.53822 0.59411,-1.16595 0.87354,-1.82523 2.57401,-1.48659 5.00829,-3.16907 7.28516,-5.02727 z m 19.17177,0.49231 c 0.0375,0.49568 0.0767,0.99447 0.12136,1.51051 -1.71093,2.07688 -3.53821,4.05085 -5.46747,5.91588 -0.0384,-0.47252 -0.0891,-0.92488 -0.14604,-1.36721 1.84285,-1.81322 3.60165,-3.73753 5.26588,-5.77669 0.0761,-0.0933 0.15062,-0.18866 0.22627,-0.28249 z m -102.40489,0.61846 c -0.33958,-0.0145 -0.0487,0.29826 1.08403,1.47418 1.19694,1.24249 1.93785,1.69089 3.26444,1.97539 0.94389,0.20242 1.90605,0.36145 2.13789,0.3538 0.76809,-0.0254 -2.85624,-3.04608 -3.9069,-3.25621 -0.56696,-0.11339 -1.4843,-0.31322 -2.03778,-0.44362 -0.24541,-0.0579 -0.42848,-0.0987 -0.54168,-0.10354 z m -2.51706,2.79133 1.68536,1.71141 c 1.17625,1.19424 2.14255,1.82639 3.19998,2.09264 2.58926,0.65198 2.88249,0.53127 1.70866,-0.70212 -1.27768,-1.34246 -1.88827,-1.67662 -4.51233,-2.47112 z m 83.79809,1.93426 c -0.20962,0.6152 -0.41011,1.19489 -0.59035,1.70591 -1.781,1.16619 -3.60812,2.22626 -5.46815,3.15816 -2.45051,1.22775 -5.11307,2.31823 -7.82546,3.22672 -0.24566,-0.0842 -0.42891,-0.18202 -0.54509,-0.29689 -0.14449,-0.14284 -0.23943,-0.34767 -0.29621,-0.57663 5.28899,-1.71257 10.23471,-4.16039 14.72526,-7.21727 z m -2.00419,5.34678 c -0.4472,0.96552 -0.81559,1.51469 -1.23007,1.94178 -0.0125,0.013 -0.0252,0.0222 -0.0377,0.035 -0.63863,0.34031 -1.2852,0.66676 -1.93562,0.98531 -0.69329,0.12358 -1.64386,0.16943 -3.02035,0.17758 2.11565,-0.92556 4.19489,-1.97432 6.22375,-3.13964 z m -85.58423,1.29179 c 2.63929,0.95555 5.31675,1.70695 8.06749,2.25102 1.93274,0.38228 3.82014,0.6907 5.21239,0.86942 -0.17691,0.43173 -0.35823,0.76589 -0.55127,1.02026 -4.13747,-0.43575 -8.78744,-1.55162 -13.2312,-3.14788 0.13139,-0.23219 0.26141,-0.47845 0.39219,-0.74668 0.0358,-0.0733 0.0738,-0.166 0.1104,-0.24614 z m -2.10704,2.94216 c 3.1185,1.18655 6.3596,2.14519 9.70554,2.84893 0.87813,0.18469 1.90453,0.34683 3.0265,0.48407 -0.18921,0.28777 -0.39189,0.62598 -0.60132,1.00039 -4.67698,-0.73356 -9.20487,-1.96957 -13.5185,-3.67378 0.51901,-0.14161 0.97396,-0.35446 1.38778,-0.65961 z m -4.8058,1.80878 c 4.27273,1.9079 8.80919,3.4006 13.56237,4.428 0.80579,0.17418 1.51322,0.31322 2.20784,0.42991 -0.15657,0.35247 -0.30076,0.69339 -0.41688,1.00039 -5.77862,-1.02646 -11.25943,-2.75366 -16.3633,-5.0842 0.34829,-0.29134 0.69333,-0.55651 1.00997,-0.7741 z m -2.83109,2.59797 c 5.41976,2.55702 11.21893,4.42817 17.2862,5.52986 -0.24647,0.39996 -0.54146,0.7195 -0.92633,0.96609 -0.25401,-0.0481 -0.51073,-0.0923 -0.76246,-0.1433 -5.59443,-1.13274 -10.92891,-2.92514 -15.92996,-5.28096 -0.0457,-0.24194 0.0371,-0.53255 0.2297,-0.90506 0.0258,-0.0501 0.0617,-0.10673 0.10285,-0.16663 z"
     id="path843"
     inkscape:connector-curvature="0" />
  <path
     inkscape:connector-curvature="0"
     id="path22"
     d="m 449.71274,271.88255 c 0.42357,-0.0806 2.2333,-0.15349 4.02167,-0.16192 5.49049,-0.0259 6.58031,-0.53145 7.45135,-3.45628 0.41706,-1.40045 1.80479,-4.19096 2.65369,-5.33619 0.3362,-0.45359 0.87954,-0.98297 1.20739,-1.1764 1.32356,-0.78091 1.94234,-3.01752 3.49446,-12.63089 1.06421,-6.59129 1.98008,-10.42158 4.05108,-16.9423 1.30549,-4.11029 2.12658,-6.25387 2.80581,-7.3249 0.26952,-0.42496 0.69071,-1.39578 0.93604,-2.1574 0.50218,-1.559 0.85004,-2.0173 1.95793,-2.5795 1.22429,-0.62124 5.69445,-2.11184 8.21447,-2.73914 3.03781,-0.7562 4.06685,-0.95284 10.35363,-1.97852 6.27291,-1.02343 9.05183,-1.54961 11.72358,-2.21984 3.08168,-0.77306 4.29117,-0.92267 5.01482,-0.62031 0.74679,0.31205 0.92955,0.64216 1.12692,2.03591 0.28571,2.01748 1.79146,5.12893 3.77986,7.81071 1.33789,1.80442 2.3718,2.6556 9.82228,8.0866 2.53398,1.84712 4.17104,3.166 4.64117,3.73911 1.54431,1.88264 3.14023,5.25518 3.64735,7.7077 0.23403,1.13179 0.24572,1.55448 0.0753,2.7239 -0.40188,2.75725 -2.07048,6.84263 -3.34961,8.20111 -0.64159,0.68138 -2.04361,1.38603 -2.76818,1.39126 -1.22221,0.009 -3.73365,0.95452 -4.38985,1.65304 -0.52917,0.56325 -0.56097,1.77366 -0.0596,2.2693 0.50189,0.49621 2.11808,0.69516 5.65915,0.69664 3.69966,0.002 4.54587,-0.18227 5.53597,-1.20248 1.06943,-1.10199 1.81414,-2.93101 4.47196,-10.9833 3.40774,-10.32426 3.96853,-11.43278 5.39503,-10.66455 0.85335,0.45955 3.25236,3.00989 4.82977,5.13439 3.15113,4.24404 4.26557,7.62594 4.42855,13.43887 0.10539,3.75961 -0.0942,5.00404 -1.1392,7.1011 -0.37547,0.75353 -0.73108,1.6164 -0.79024,1.91749 -0.11755,0.59841 -0.48664,1.0093 -0.99115,1.10345 -0.48425,0.0904 -0.67996,0.52853 -0.54866,1.22838 0.16977,0.90497 0.53708,1.03091 3.01176,1.03252 3.14674,0.002 5.38858,-0.69613 6.90711,-2.15115 l 0.79393,-0.76073 v -1.55254 c 0,-0.85389 -0.15616,-2.46506 -0.34704,-3.58037 -0.85352,-4.98721 -1.63566,-12.11721 -1.85568,-16.91653 -0.0976,-2.12915 -0.20697,-3.04987 -0.40786,-3.43356 -0.15098,-0.28838 -0.99229,-1.13412 -1.86959,-1.87944 -3.16651,-2.69022 -6.02266,-5.82696 -8.0697,-8.86248 -1.01567,-1.50613 -2.77924,-5.09632 -3.61791,-7.36522 -0.59192,-1.60132 -0.96049,-3.35935 -0.70427,-3.35935 0.2623,0 1.32528,0.63929 3.43802,2.0677 2.57447,1.74061 3.91468,2.40833 5.80316,2.89128 2.62263,0.67072 5.41252,0.38139 8.63292,-0.89525 3.674,-1.45648 7.72581,-4.21757 7.72581,-5.26473 0,-0.3099 -1.21161,-0.0838 -4.27835,0.79837 -3.72953,1.07283 -5.20672,1.3987 -7.13379,1.57377 -4.58685,0.41669 -7.18544,-0.81899 -9.60812,-4.56887 -1.4096,-2.18181 -1.71002,-3.56093 -2.33531,-10.72085 -0.46966,-5.3778 -0.78085,-7.7776 -1.29161,-9.96128 -1.15976,-4.95807 -3.70566,-8.28351 -8.98071,-11.73057 -4.28783,-2.80195 -8.88291,-4.61708 -14.80314,-5.84753 -9.60899,-1.99709 -18.92346,-2.40692 -27.72376,-1.21981 -4.38923,0.59208 -8.57234,1.07476 -11.24931,1.29801 -2.72656,0.22741 -4.138,0.0882 -8.94454,-0.88214 -1.83544,-0.37053 -5.2624,-1.021 -7.6155,-1.44549 -6.15791,-1.11087 -7.38392,-1.48414 -8.71598,-2.65368 -1.10873,-0.97349 -5.24265,-7.39262 -5.92945,-9.20728 -0.29928,-0.79075 -0.349,-1.20721 -0.27831,-2.33176 0.0473,-0.75299 0.22859,-1.79024 0.40283,-2.30502 0.38442,-1.1358 0.96148,-1.57495 3.27399,-2.49154 1.71953,-0.68155 3.28711,-1.7274 3.98633,-2.65959 0.52033,-0.69367 0.64296,-0.99547 0.85334,-2.0997 0.0867,-0.4554 0.49761,-1.61056 0.913,-2.56702 0.90203,-2.0768 1.05763,-2.63257 1.30145,-4.6483 0.10243,-0.84711 0.41391,-2.56363 0.69212,-3.81446 0.77094,-3.4661 0.65715,-4.85612 -0.42121,-5.14564 -1.63199,-0.43817 -5.92142,1.96246 -10.1074,5.65665 -3.14233,2.77317 -6.36174,5.52503 -7.41669,6.33955 l -0.90984,0.70252 -2.37303,-0.48101 c -3.15645,-0.63979 -5.19745,-0.5592 -9.92109,0.3917 l -3.33232,0.67084 -5.4811,-2.78849 c -7.78858,-3.96244 -9.73288,-4.72831 -13.38367,-5.27198 -2.02439,-0.30146 -2.53036,-0.23273 -2.78132,0.37778 -0.5155,1.25392 2.15089,7.63219 4.98276,11.91926 1.33155,2.01581 2.02177,3.27359 2.02177,3.68424 0,0.49458 1.33675,1.70944 2.45432,2.23055 0.79893,0.37253 1.47444,0.53066 2.79181,0.65351 0.95583,0.0891 1.89356,0.24537 2.08385,0.34721 0.65656,0.35139 1.84236,4.20931 1.64776,5.36102 -0.0654,0.38716 -0.64997,1.74937 -1.299,3.02713 -0.69218,1.36272 -1.25081,2.70909 -1.35118,3.25662 -0.36202,1.97474 0.39372,3.86548 2.2961,5.74452 1.75192,1.73047 3.34009,2.39456 6.52175,2.72708 2.04227,0.21344 2.12141,0.24251 2.65146,0.9742 0.658,0.90833 1.82112,3.90283 2.12956,5.48264 0.32391,1.65892 1.24811,4.40631 2.60168,7.73402 1.29009,3.17161 1.66346,4.6191 2.03578,7.89282 0.39199,3.44614 0.66651,4.59684 1.51068,6.33197 0.87256,1.79351 2.10187,3.5483 4.73562,6.7598 2.13321,2.60117 3.97798,5.23241 4.73935,6.75982 1.60076,3.21134 2.92214,9.70028 3.46748,17.02787 0.22882,3.07448 0.22047,12.29623 -0.0127,13.97222 -0.24115,1.73368 -1.21427,4.92774 -1.97941,6.49684 -1.12436,2.30581 -2.22262,3.23989 -4.12216,3.50586 -0.63658,0.0891 -1.57101,0.3703 -2.07652,0.62484 -1.03443,0.5208 -3.15868,2.40525 -3.53782,3.13844 -0.55882,1.08068 -0.22213,1.48342 1.63325,1.95361 2.12702,0.53903 2.31727,0.97179 1.13331,2.57767 -0.9657,1.30976 -1.07579,1.67264 -0.63977,2.10865 0.62818,0.62819 2.94957,0.99448 4.46934,0.70522 z"
     style="fill:none;stroke:#000000;stroke-width:1.23297608;stroke-miterlimit:4;stroke-dasharray:none;stroke-opacity:1" />
  <g
     id="g882"
     transform="matrix(0.55720447,0,0,0.55720447,-129.64862,87.256114)">
    <text
       id="text862"
       y="277.86996"
       x="269.81555"
       style="font-style:normal;font-weight:normal;font-size:30px;line-height:1.25;font-family:sans-serif;letter-spacing:0px;word-spacing:0px;fill:#000000;fill-opacity:1;stroke:none;stroke-width:0.75"
       xml:space="preserve"><tspan
         style="font-size:144px;stroke-width:0.75"
         y="277.86996"
         x="269.81555"
         id="tspan860"
         sodipodi:role="line"><tspan
           id="tspan866"
           style="font-style:normal;font-variant:normal;font-weight:normal;font-stretch:normal;font-size:144px;font-family:Nasalization;-inkscape-font-specification:Nasalization">LoR</tspan><tspan
           id="tspan864"
           style="font-style:normal;font-variant:normal;font-weight:normal;font-stretch:normal;font-size:144px;font-family:Comfortaa;-inkscape-font-specification:Comfortaa">aware</tspan></tspan></text>
    <g
       id="g24"
       transform="matrix(0.05960488,0,0,-0.05960488,285.47771,410.88528)"
       style="fill:none;stroke:#000000;stroke-width:12.58286285;stroke-miterlimit:4;stroke-dasharray:none;stroke-opacity:1">
      <path
         style="fill:none;stroke:#000000;stroke-width:12.58286285;stroke-miterlimit:4;stroke-dasharray:none;stroke-opacity:1"
         id="path22-0"
         d="m 1666,4928 c -20,-79 -146,-584 -281,-1123 -135,-539 -250,-991 -256,-1005 -17,-39 -23,-15 -63,230 -21,124 -40,233 -44,243 -6,14 -27,-25 -81,-150 -41,-92 -78,-174 -84,-180 -7,-10 -106,-13 -433,-13 -245,0 -424,-4 -424,-9 0,-8 840,-21 865,-14 6,2 35,60 65,129 30,69 60,130 67,136 15,12 15,16 62,-265 21,-125 41,-230 45,-234 3,-4 10,-2 15,3 5,5 131,495 281,1089 149,594 276,1097 281,1118 5,20 14,37 19,37 12,0 17,-59 35,-435 9,-181 20,-409 25,-505 12,-231 43,-825 80,-1570 47,-931 56,-1079 63,-1087 4,-3 10,-3 14,1 4,4 66,417 138,918 79,552 134,913 141,915 6,2 33,-49 59,-114 27,-65 55,-124 64,-130 11,-10 121,-13 472,-13 353,0 459,3 466,13 5,6 34,67 63,135 30,67 60,122 67,122 7,0 13,-3 13,-7 0,-5 18,-114 40,-243 37,-215 50,-264 65,-248 4,3 132,507 286,1119 154,613 284,1118 289,1123 15,15 18,-24 40,-454 11,-228 27,-539 35,-690 8,-151 28,-545 45,-875 38,-752 47,-934 65,-1269 8,-148 15,-277 15,-288 0,-10 6,-18 13,-18 10,0 45,222 141,897 70,494 129,908 132,921 9,42 28,17 75,-99 26,-63 52,-120 58,-126 9,-10 118,-13 479,-13 360,0 472,3 483,13 9,6 27,39 42,72 72,166 88,198 97,189 5,-5 27,-117 50,-249 37,-220 50,-269 65,-253 4,3 132,507 286,1119 154,613 284,1118 289,1123 13,13 18,-19 25,-149 3,-66 17,-334 30,-595 27,-524 54,-1055 85,-1665 29,-578 39,-778 50,-970 5,-93 10,-180 10,-192 0,-14 6,-23 15,-23 8,0 15,5 15,10 0,13 237,1686 250,1764 5,32 12,61 14,63 12,12 27,-15 71,-124 26,-65 52,-121 58,-125 7,-4 217,-8 467,-8 250,0 460,4 465,8 6,4 36,63 66,132 32,72 62,125 69,125 10,0 25,-64 55,-242 22,-133 44,-245 48,-249 4,-4 11,-3 17,2 5,5 131,497 280,1094 287,1151 287,1150 300,1150 11,0 15,-63 45,-660 14,-272 34,-668 45,-880 11,-212 33,-657 50,-990 53,-1037 54,-1063 66,-1067 7,-2 14,6 17,19 3,13 63,427 133,921 85,602 131,897 139,897 6,0 31,-48 55,-107 24,-60 49,-118 57,-131 l 14,-22 1137,6 1138,7 37,-36 c 51,-52 105,-50 133,4 43,83 -70,153 -128,79 l -24,-30 -1144,2 -1144,3 -70,172 c -39,95 -74,169 -78,165 -4,-4 -61,-389 -127,-855 -66,-467 -122,-851 -125,-855 -15,-15 -20,26 -32,270 -14,272 -44,846 -69,1333 -8,154 -28,550 -45,880 -47,942 -51,1009 -61,1019 -5,5 -11,7 -14,4 -4,-3 -134,-516 -291,-1139 -156,-623 -289,-1138 -294,-1143 -14,-14 -16,-5 -55,234 -42,259 -44,265 -55,254 -5,-5 -39,-79 -77,-164 -37,-85 -72,-161 -76,-167 -12,-19 -900,-19 -914,0 -5,6 -38,82 -72,167 -35,85 -67,159 -71,164 -11,11 -5,52 -120,-769 -55,-390 -107,-759 -116,-820 -16,-112 -29,-147 -38,-104 -3,13 -12,164 -21,334 -8,171 -24,483 -35,695 -11,212 -25,475 -30,585 -6,110 -15,279 -20,375 -5,96 -23,459 -40,805 -17,347 -33,645 -36,663 -3,19 -10,32 -16,30 -15,-5 -12,5 -324,-1240 -141,-564 -260,-1032 -265,-1039 -4,-8 -11,-11 -14,-8 -3,4 -24,116 -45,249 -22,134 -43,246 -45,249 -8,7 -9,4 -88,-174 l -76,-170 -464,-3 c -364,-2 -466,1 -474,10 -5,7 -38,83 -73,168 -34,85 -66,159 -70,163 -10,12 -13,-5 -54,-298 -134,-953 -197,-1392 -202,-1405 -12,-33 -22,16 -28,139 -4,69 -11,212 -16,316 -37,710 -52,997 -70,1345 -11,217 -24,481 -30,585 -5,105 -17,332 -26,505 -32,659 -29,620 -52,606 -5,-3 -136,-514 -292,-1136 -156,-622 -287,-1136 -291,-1142 -5,-7 -11,-10 -14,-6 -5,4 -84,465 -85,491 0,20 -20,3 -33,-30 -8,-21 -43,-100 -77,-175 l -62,-138 h -449 -449 l -14,23 c -8,12 -42,91 -77,175 -35,84 -66,149 -70,145 -4,-5 -59,-381 -124,-838 -123,-878 -123,-875 -135,-875 -10,0 -16,78 -30,360 -5,118 -19,386 -30,595 -48,931 -62,1191 -85,1665 -14,278 -30,582 -35,675 -5,94 -10,180 -10,193 0,12 -6,22 -14,22 -9,0 -25,-46 -50,-142 z"
         inkscape:connector-curvature="0" />
    </g>
  </g>
</svg>
